<?xml version="1.0" encoding="utf-8" standalone="no"?>
<!DOCTYPE svg PUBLIC "-//W3C//DTD SVG 1.1//EN"
  "http://www.w3.org/Graphics/SVG/1.1/DTD/svg11.dtd">
<svg xmlns:xlink="http://www.w3.org/1999/xlink" width="1008pt" height="432pt" viewBox="0 0 1008 432" xmlns="http://www.w3.org/2000/svg" version="1.1">
 <metadata>
  <rdf:RDF xmlns:dc="http://purl.org/dc/elements/1.1/" xmlns:cc="http://creativecommons.org/ns#" xmlns:rdf="http://www.w3.org/1999/02/22-rdf-syntax-ns#">
   <cc:Work>
    <dc:type rdf:resource="http://purl.org/dc/dcmitype/StillImage"/>
    <dc:date>2026-03-17T00:02:44.111370</dc:date>
    <dc:format>image/svg+xml</dc:format>
    <dc:creator>
     <cc:Agent>
      <dc:title>Matplotlib v3.10.8, https://matplotlib.org/</dc:title>
     </cc:Agent>
    </dc:creator>
   </cc:Work>
  </rdf:RDF>
 </metadata>
 <defs>
  <style type="text/css">*{stroke-linejoin: round; stroke-linecap: butt}</style>
 </defs>
 <g id="figure_1">
  <g id="patch_1">
   <path d="M 0 432 
L 1008 432 
L 1008 0 
L 0 0 
z
" style="fill: #ffffff"/>
  </g>
  <g id="axes_1">
   <g id="patch_2">
    <path d="M 58.88 387.16 
L 997.2 387.16 
L 997.2 41.856 
L 58.88 41.856 
z
" style="fill: #ffffff"/>
   </g>
   <g id="matplotlib.axis_1">
    <g id="xtick_1">
     <g id="line2d_1">
      <path d="M 101.530909 387.16 
L 101.530909 41.856 
" clip-path="url(#p7c9b4fae1b)" style="fill: none; stroke: #b0b0b0; stroke-opacity: 0.2; stroke-width: 0.8; stroke-linecap: square"/>
     </g>
     <g id="line2d_2">
      <defs>
       <path id="m06f276797d" d="M 0 0 
L 0 3.5 
" style="stroke: #000000; stroke-width: 0.8"/>
      </defs>
      <g>
       <use xlink:href="#m06f276797d" x="101.530909" y="387.16" style="stroke: #000000; stroke-width: 0.8"/>
      </g>
     </g>
     <g id="text_1">
      <!-- 1 -->
      <g transform="translate(98.349659 401.758438) scale(0.1 -0.1)">
       <defs>
        <path id="DejaVuSans-31" d="M 794 531 
L 1825 531 
L 1825 4091 
L 703 3866 
L 703 4441 
L 1819 4666 
L 2450 4666 
L 2450 531 
L 3481 531 
L 3481 0 
L 794 0 
L 794 531 
z
" transform="scale(0.015625)"/>
       </defs>
       <use xlink:href="#DejaVuSans-31"/>
      </g>
     </g>
    </g>
    <g id="xtick_2">
     <g id="line2d_3">
      <path d="M 215.266667 387.16 
L 215.266667 41.856 
" clip-path="url(#p7c9b4fae1b)" style="fill: none; stroke: #b0b0b0; stroke-opacity: 0.2; stroke-width: 0.8; stroke-linecap: square"/>
     </g>
     <g id="line2d_4">
      <g>
       <use xlink:href="#m06f276797d" x="215.266667" y="387.16" style="stroke: #000000; stroke-width: 0.8"/>
      </g>
     </g>
     <g id="text_2">
      <!-- 3 -->
      <g transform="translate(212.085417 401.758438) scale(0.1 -0.1)">
       <defs>
        <path id="DejaVuSans-33" d="M 2597 2516 
Q 3050 2419 3304 2112 
Q 3559 1806 3559 1356 
Q 3559 666 3084 287 
Q 2609 -91 1734 -91 
Q 1441 -91 1130 -33 
Q 819 25 488 141 
L 488 750 
Q 750 597 1062 519 
Q 1375 441 1716 441 
Q 2309 441 2620 675 
Q 2931 909 2931 1356 
Q 2931 1769 2642 2001 
Q 2353 2234 1838 2234 
L 1294 2234 
L 1294 2753 
L 1863 2753 
Q 2328 2753 2575 2939 
Q 2822 3125 2822 3475 
Q 2822 3834 2567 4026 
Q 2313 4219 1838 4219 
Q 1578 4219 1281 4162 
Q 984 4106 628 3988 
L 628 4550 
Q 988 4650 1302 4700 
Q 1616 4750 1894 4750 
Q 2613 4750 3031 4423 
Q 3450 4097 3450 3541 
Q 3450 3153 3228 2886 
Q 3006 2619 2597 2516 
z
" transform="scale(0.015625)"/>
       </defs>
       <use xlink:href="#DejaVuSans-33"/>
      </g>
     </g>
    </g>
    <g id="xtick_3">
     <g id="line2d_5">
      <path d="M 272.134545 387.16 
L 272.134545 41.856 
" clip-path="url(#p7c9b4fae1b)" style="fill: none; stroke: #b0b0b0; stroke-opacity: 0.2; stroke-width: 0.8; stroke-linecap: square"/>
     </g>
     <g id="line2d_6">
      <g>
       <use xlink:href="#m06f276797d" x="272.134545" y="387.16" style="stroke: #000000; stroke-width: 0.8"/>
      </g>
     </g>
     <g id="text_3">
      <!-- 4 -->
      <g transform="translate(268.953295 401.758438) scale(0.1 -0.1)">
       <defs>
        <path id="DejaVuSans-34" d="M 2419 4116 
L 825 1625 
L 2419 1625 
L 2419 4116 
z
M 2253 4666 
L 3047 4666 
L 3047 1625 
L 3713 1625 
L 3713 1100 
L 3047 1100 
L 3047 0 
L 2419 0 
L 2419 1100 
L 313 1100 
L 313 1709 
L 2253 4666 
z
" transform="scale(0.015625)"/>
       </defs>
       <use xlink:href="#DejaVuSans-34"/>
      </g>
     </g>
    </g>
    <g id="xtick_4">
     <g id="line2d_7">
      <path d="M 385.870303 387.16 
L 385.870303 41.856 
" clip-path="url(#p7c9b4fae1b)" style="fill: none; stroke: #b0b0b0; stroke-opacity: 0.2; stroke-width: 0.8; stroke-linecap: square"/>
     </g>
     <g id="line2d_8">
      <g>
       <use xlink:href="#m06f276797d" x="385.870303" y="387.16" style="stroke: #000000; stroke-width: 0.8"/>
      </g>
     </g>
     <g id="text_4">
      <!-- 6 -->
      <g transform="translate(382.689053 401.758438) scale(0.1 -0.1)">
       <defs>
        <path id="DejaVuSans-36" d="M 2113 2584 
Q 1688 2584 1439 2293 
Q 1191 2003 1191 1497 
Q 1191 994 1439 701 
Q 1688 409 2113 409 
Q 2538 409 2786 701 
Q 3034 994 3034 1497 
Q 3034 2003 2786 2293 
Q 2538 2584 2113 2584 
z
M 3366 4563 
L 3366 3988 
Q 3128 4100 2886 4159 
Q 2644 4219 2406 4219 
Q 1781 4219 1451 3797 
Q 1122 3375 1075 2522 
Q 1259 2794 1537 2939 
Q 1816 3084 2150 3084 
Q 2853 3084 3261 2657 
Q 3669 2231 3669 1497 
Q 3669 778 3244 343 
Q 2819 -91 2113 -91 
Q 1303 -91 875 529 
Q 447 1150 447 2328 
Q 447 3434 972 4092 
Q 1497 4750 2381 4750 
Q 2619 4750 2861 4703 
Q 3103 4656 3366 4563 
z
" transform="scale(0.015625)"/>
       </defs>
       <use xlink:href="#DejaVuSans-36"/>
      </g>
     </g>
    </g>
    <g id="xtick_5">
     <g id="line2d_9">
      <path d="M 499.606061 387.16 
L 499.606061 41.856 
" clip-path="url(#p7c9b4fae1b)" style="fill: none; stroke: #b0b0b0; stroke-opacity: 0.2; stroke-width: 0.8; stroke-linecap: square"/>
     </g>
     <g id="line2d_10">
      <g>
       <use xlink:href="#m06f276797d" x="499.606061" y="387.16" style="stroke: #000000; stroke-width: 0.8"/>
      </g>
     </g>
     <g id="text_5">
      <!-- 8 -->
      <g transform="translate(496.424811 401.758438) scale(0.1 -0.1)">
       <defs>
        <path id="DejaVuSans-38" d="M 2034 2216 
Q 1584 2216 1326 1975 
Q 1069 1734 1069 1313 
Q 1069 891 1326 650 
Q 1584 409 2034 409 
Q 2484 409 2743 651 
Q 3003 894 3003 1313 
Q 3003 1734 2745 1975 
Q 2488 2216 2034 2216 
z
M 1403 2484 
Q 997 2584 770 2862 
Q 544 3141 544 3541 
Q 544 4100 942 4425 
Q 1341 4750 2034 4750 
Q 2731 4750 3128 4425 
Q 3525 4100 3525 3541 
Q 3525 3141 3298 2862 
Q 3072 2584 2669 2484 
Q 3125 2378 3379 2068 
Q 3634 1759 3634 1313 
Q 3634 634 3220 271 
Q 2806 -91 2034 -91 
Q 1263 -91 848 271 
Q 434 634 434 1313 
Q 434 1759 690 2068 
Q 947 2378 1403 2484 
z
M 1172 3481 
Q 1172 3119 1398 2916 
Q 1625 2713 2034 2713 
Q 2441 2713 2670 2916 
Q 2900 3119 2900 3481 
Q 2900 3844 2670 4047 
Q 2441 4250 2034 4250 
Q 1625 4250 1398 4047 
Q 1172 3844 1172 3481 
z
" transform="scale(0.015625)"/>
       </defs>
       <use xlink:href="#DejaVuSans-38"/>
      </g>
     </g>
    </g>
    <g id="xtick_6">
     <g id="line2d_11">
      <path d="M 556.473939 387.16 
L 556.473939 41.856 
" clip-path="url(#p7c9b4fae1b)" style="fill: none; stroke: #b0b0b0; stroke-opacity: 0.2; stroke-width: 0.8; stroke-linecap: square"/>
     </g>
     <g id="line2d_12">
      <g>
       <use xlink:href="#m06f276797d" x="556.473939" y="387.16" style="stroke: #000000; stroke-width: 0.8"/>
      </g>
     </g>
     <g id="text_6">
      <!-- 9 -->
      <g transform="translate(553.292689 401.758438) scale(0.1 -0.1)">
       <defs>
        <path id="DejaVuSans-39" d="M 703 97 
L 703 672 
Q 941 559 1184 500 
Q 1428 441 1663 441 
Q 2288 441 2617 861 
Q 2947 1281 2994 2138 
Q 2813 1869 2534 1725 
Q 2256 1581 1919 1581 
Q 1219 1581 811 2004 
Q 403 2428 403 3163 
Q 403 3881 828 4315 
Q 1253 4750 1959 4750 
Q 2769 4750 3195 4129 
Q 3622 3509 3622 2328 
Q 3622 1225 3098 567 
Q 2575 -91 1691 -91 
Q 1453 -91 1209 -44 
Q 966 3 703 97 
z
M 1959 2075 
Q 2384 2075 2632 2365 
Q 2881 2656 2881 3163 
Q 2881 3666 2632 3958 
Q 2384 4250 1959 4250 
Q 1534 4250 1286 3958 
Q 1038 3666 1038 3163 
Q 1038 2656 1286 2365 
Q 1534 2075 1959 2075 
z
" transform="scale(0.015625)"/>
       </defs>
       <use xlink:href="#DejaVuSans-39"/>
      </g>
     </g>
    </g>
    <g id="xtick_7">
     <g id="line2d_13">
      <path d="M 613.341818 387.16 
L 613.341818 41.856 
" clip-path="url(#p7c9b4fae1b)" style="fill: none; stroke: #b0b0b0; stroke-opacity: 0.2; stroke-width: 0.8; stroke-linecap: square"/>
     </g>
     <g id="line2d_14">
      <g>
       <use xlink:href="#m06f276797d" x="613.341818" y="387.16" style="stroke: #000000; stroke-width: 0.8"/>
      </g>
     </g>
     <g id="text_7">
      <!-- 10 -->
      <g transform="translate(606.979318 401.758438) scale(0.1 -0.1)">
       <defs>
        <path id="DejaVuSans-30" d="M 2034 4250 
Q 1547 4250 1301 3770 
Q 1056 3291 1056 2328 
Q 1056 1369 1301 889 
Q 1547 409 2034 409 
Q 2525 409 2770 889 
Q 3016 1369 3016 2328 
Q 3016 3291 2770 3770 
Q 2525 4250 2034 4250 
z
M 2034 4750 
Q 2819 4750 3233 4129 
Q 3647 3509 3647 2328 
Q 3647 1150 3233 529 
Q 2819 -91 2034 -91 
Q 1250 -91 836 529 
Q 422 1150 422 2328 
Q 422 3509 836 4129 
Q 1250 4750 2034 4750 
z
" transform="scale(0.015625)"/>
       </defs>
       <use xlink:href="#DejaVuSans-31"/>
       <use xlink:href="#DejaVuSans-30" transform="translate(63.623047 0)"/>
      </g>
     </g>
    </g>
    <g id="xtick_8">
     <g id="line2d_15">
      <path d="M 670.209697 387.16 
L 670.209697 41.856 
" clip-path="url(#p7c9b4fae1b)" style="fill: none; stroke: #b0b0b0; stroke-opacity: 0.2; stroke-width: 0.8; stroke-linecap: square"/>
     </g>
     <g id="line2d_16">
      <g>
       <use xlink:href="#m06f276797d" x="670.209697" y="387.16" style="stroke: #000000; stroke-width: 0.8"/>
      </g>
     </g>
     <g id="text_8">
      <!-- 11 -->
      <g transform="translate(663.847197 401.758438) scale(0.1 -0.1)">
       <use xlink:href="#DejaVuSans-31"/>
       <use xlink:href="#DejaVuSans-31" transform="translate(63.623047 0)"/>
      </g>
     </g>
    </g>
    <g id="xtick_9">
     <g id="line2d_17">
      <path d="M 727.077576 387.16 
L 727.077576 41.856 
" clip-path="url(#p7c9b4fae1b)" style="fill: none; stroke: #b0b0b0; stroke-opacity: 0.2; stroke-width: 0.8; stroke-linecap: square"/>
     </g>
     <g id="line2d_18">
      <g>
       <use xlink:href="#m06f276797d" x="727.077576" y="387.16" style="stroke: #000000; stroke-width: 0.8"/>
      </g>
     </g>
     <g id="text_9">
      <!-- 12 -->
      <g transform="translate(720.715076 401.758438) scale(0.1 -0.1)">
       <defs>
        <path id="DejaVuSans-32" d="M 1228 531 
L 3431 531 
L 3431 0 
L 469 0 
L 469 531 
Q 828 903 1448 1529 
Q 2069 2156 2228 2338 
Q 2531 2678 2651 2914 
Q 2772 3150 2772 3378 
Q 2772 3750 2511 3984 
Q 2250 4219 1831 4219 
Q 1534 4219 1204 4116 
Q 875 4013 500 3803 
L 500 4441 
Q 881 4594 1212 4672 
Q 1544 4750 1819 4750 
Q 2544 4750 2975 4387 
Q 3406 4025 3406 3419 
Q 3406 3131 3298 2873 
Q 3191 2616 2906 2266 
Q 2828 2175 2409 1742 
Q 1991 1309 1228 531 
z
" transform="scale(0.015625)"/>
       </defs>
       <use xlink:href="#DejaVuSans-31"/>
       <use xlink:href="#DejaVuSans-32" transform="translate(63.623047 0)"/>
      </g>
     </g>
    </g>
    <g id="xtick_10">
     <g id="line2d_19">
      <path d="M 783.945455 387.16 
L 783.945455 41.856 
" clip-path="url(#p7c9b4fae1b)" style="fill: none; stroke: #b0b0b0; stroke-opacity: 0.2; stroke-width: 0.8; stroke-linecap: square"/>
     </g>
     <g id="line2d_20">
      <g>
       <use xlink:href="#m06f276797d" x="783.945455" y="387.16" style="stroke: #000000; stroke-width: 0.8"/>
      </g>
     </g>
     <g id="text_10">
      <!-- 13 -->
      <g transform="translate(777.582955 401.758438) scale(0.1 -0.1)">
       <use xlink:href="#DejaVuSans-31"/>
       <use xlink:href="#DejaVuSans-33" transform="translate(63.623047 0)"/>
      </g>
     </g>
    </g>
    <g id="xtick_11">
     <g id="line2d_21">
      <path d="M 954.549091 387.16 
L 954.549091 41.856 
" clip-path="url(#p7c9b4fae1b)" style="fill: none; stroke: #b0b0b0; stroke-opacity: 0.2; stroke-width: 0.8; stroke-linecap: square"/>
     </g>
     <g id="line2d_22">
      <g>
       <use xlink:href="#m06f276797d" x="954.549091" y="387.16" style="stroke: #000000; stroke-width: 0.8"/>
      </g>
     </g>
     <g id="text_11">
      <!-- 16 -->
      <g transform="translate(948.186591 401.758438) scale(0.1 -0.1)">
       <use xlink:href="#DejaVuSans-31"/>
       <use xlink:href="#DejaVuSans-36" transform="translate(63.623047 0)"/>
      </g>
     </g>
    </g>
    <g id="text_12">
     <!-- Scene -->
     <g transform="translate(509.745625 416.95625) scale(0.12 -0.12)">
      <defs>
       <path id="DejaVuSans-53" d="M 3425 4513 
L 3425 3897 
Q 3066 4069 2747 4153 
Q 2428 4238 2131 4238 
Q 1616 4238 1336 4038 
Q 1056 3838 1056 3469 
Q 1056 3159 1242 3001 
Q 1428 2844 1947 2747 
L 2328 2669 
Q 3034 2534 3370 2195 
Q 3706 1856 3706 1288 
Q 3706 609 3251 259 
Q 2797 -91 1919 -91 
Q 1588 -91 1214 -16 
Q 841 59 441 206 
L 441 856 
Q 825 641 1194 531 
Q 1563 422 1919 422 
Q 2459 422 2753 634 
Q 3047 847 3047 1241 
Q 3047 1584 2836 1778 
Q 2625 1972 2144 2069 
L 1759 2144 
Q 1053 2284 737 2584 
Q 422 2884 422 3419 
Q 422 4038 858 4394 
Q 1294 4750 2059 4750 
Q 2388 4750 2728 4690 
Q 3069 4631 3425 4513 
z
" transform="scale(0.015625)"/>
       <path id="DejaVuSans-63" d="M 3122 3366 
L 3122 2828 
Q 2878 2963 2633 3030 
Q 2388 3097 2138 3097 
Q 1578 3097 1268 2742 
Q 959 2388 959 1747 
Q 959 1106 1268 751 
Q 1578 397 2138 397 
Q 2388 397 2633 464 
Q 2878 531 3122 666 
L 3122 134 
Q 2881 22 2623 -34 
Q 2366 -91 2075 -91 
Q 1284 -91 818 406 
Q 353 903 353 1747 
Q 353 2603 823 3093 
Q 1294 3584 2113 3584 
Q 2378 3584 2631 3529 
Q 2884 3475 3122 3366 
z
" transform="scale(0.015625)"/>
       <path id="DejaVuSans-65" d="M 3597 1894 
L 3597 1613 
L 953 1613 
Q 991 1019 1311 708 
Q 1631 397 2203 397 
Q 2534 397 2845 478 
Q 3156 559 3463 722 
L 3463 178 
Q 3153 47 2828 -22 
Q 2503 -91 2169 -91 
Q 1331 -91 842 396 
Q 353 884 353 1716 
Q 353 2575 817 3079 
Q 1281 3584 2069 3584 
Q 2775 3584 3186 3129 
Q 3597 2675 3597 1894 
z
M 3022 2063 
Q 3016 2534 2758 2815 
Q 2500 3097 2075 3097 
Q 1594 3097 1305 2825 
Q 1016 2553 972 2059 
L 3022 2063 
z
" transform="scale(0.015625)"/>
       <path id="DejaVuSans-6e" d="M 3513 2113 
L 3513 0 
L 2938 0 
L 2938 2094 
Q 2938 2591 2744 2837 
Q 2550 3084 2163 3084 
Q 1697 3084 1428 2787 
Q 1159 2491 1159 1978 
L 1159 0 
L 581 0 
L 581 3500 
L 1159 3500 
L 1159 2956 
Q 1366 3272 1645 3428 
Q 1925 3584 2291 3584 
Q 2894 3584 3203 3211 
Q 3513 2838 3513 2113 
z
" transform="scale(0.015625)"/>
      </defs>
      <use xlink:href="#DejaVuSans-53"/>
      <use xlink:href="#DejaVuSans-63" transform="translate(63.476562 0)"/>
      <use xlink:href="#DejaVuSans-65" transform="translate(118.457031 0)"/>
      <use xlink:href="#DejaVuSans-6e" transform="translate(179.980469 0)"/>
      <use xlink:href="#DejaVuSans-65" transform="translate(243.359375 0)"/>
     </g>
    </g>
   </g>
   <g id="matplotlib.axis_2">
    <g id="ytick_1">
     <g id="line2d_23">
      <path d="M 58.88 366.232485 
L 997.2 366.232485 
" clip-path="url(#p7c9b4fae1b)" style="fill: none; stroke: #b0b0b0; stroke-opacity: 0.2; stroke-width: 0.8; stroke-linecap: square"/>
     </g>
     <g id="line2d_24">
      <defs>
       <path id="m74c4def020" d="M 0 0 
L -3.5 0 
" style="stroke: #000000; stroke-width: 0.8"/>
      </defs>
      <g>
       <use xlink:href="#m74c4def020" x="58.88" y="366.232485" style="stroke: #000000; stroke-width: 0.8"/>
      </g>
     </g>
     <g id="text_13">
      <!-- −0.4 -->
      <g transform="translate(27.597188 370.031704) scale(0.1 -0.1)">
       <defs>
        <path id="DejaVuSans-2212" d="M 678 2272 
L 4684 2272 
L 4684 1741 
L 678 1741 
L 678 2272 
z
" transform="scale(0.015625)"/>
        <path id="DejaVuSans-2e" d="M 684 794 
L 1344 794 
L 1344 0 
L 684 0 
L 684 794 
z
" transform="scale(0.015625)"/>
       </defs>
       <use xlink:href="#DejaVuSans-2212"/>
       <use xlink:href="#DejaVuSans-30" transform="translate(83.789062 0)"/>
       <use xlink:href="#DejaVuSans-2e" transform="translate(147.412109 0)"/>
       <use xlink:href="#DejaVuSans-34" transform="translate(179.199219 0)"/>
      </g>
     </g>
    </g>
    <g id="ytick_2">
     <g id="line2d_25">
      <path d="M 58.88 324.377455 
L 997.2 324.377455 
" clip-path="url(#p7c9b4fae1b)" style="fill: none; stroke: #b0b0b0; stroke-opacity: 0.2; stroke-width: 0.8; stroke-linecap: square"/>
     </g>
     <g id="line2d_26">
      <g>
       <use xlink:href="#m74c4def020" x="58.88" y="324.377455" style="stroke: #000000; stroke-width: 0.8"/>
      </g>
     </g>
     <g id="text_14">
      <!-- −0.2 -->
      <g transform="translate(27.597188 328.176673) scale(0.1 -0.1)">
       <use xlink:href="#DejaVuSans-2212"/>
       <use xlink:href="#DejaVuSans-30" transform="translate(83.789062 0)"/>
       <use xlink:href="#DejaVuSans-2e" transform="translate(147.412109 0)"/>
       <use xlink:href="#DejaVuSans-32" transform="translate(179.199219 0)"/>
      </g>
     </g>
    </g>
    <g id="ytick_3">
     <g id="line2d_27">
      <path d="M 58.88 282.522424 
L 997.2 282.522424 
" clip-path="url(#p7c9b4fae1b)" style="fill: none; stroke: #b0b0b0; stroke-opacity: 0.2; stroke-width: 0.8; stroke-linecap: square"/>
     </g>
     <g id="line2d_28">
      <g>
       <use xlink:href="#m74c4def020" x="58.88" y="282.522424" style="stroke: #000000; stroke-width: 0.8"/>
      </g>
     </g>
     <g id="text_15">
      <!-- 0.0 -->
      <g transform="translate(35.976875 286.321643) scale(0.1 -0.1)">
       <use xlink:href="#DejaVuSans-30"/>
       <use xlink:href="#DejaVuSans-2e" transform="translate(63.623047 0)"/>
       <use xlink:href="#DejaVuSans-30" transform="translate(95.410156 0)"/>
      </g>
     </g>
    </g>
    <g id="ytick_4">
     <g id="line2d_29">
      <path d="M 58.88 240.667394 
L 997.2 240.667394 
" clip-path="url(#p7c9b4fae1b)" style="fill: none; stroke: #b0b0b0; stroke-opacity: 0.2; stroke-width: 0.8; stroke-linecap: square"/>
     </g>
     <g id="line2d_30">
      <g>
       <use xlink:href="#m74c4def020" x="58.88" y="240.667394" style="stroke: #000000; stroke-width: 0.8"/>
      </g>
     </g>
     <g id="text_16">
      <!-- 0.2 -->
      <g transform="translate(35.976875 244.466613) scale(0.1 -0.1)">
       <use xlink:href="#DejaVuSans-30"/>
       <use xlink:href="#DejaVuSans-2e" transform="translate(63.623047 0)"/>
       <use xlink:href="#DejaVuSans-32" transform="translate(95.410156 0)"/>
      </g>
     </g>
    </g>
    <g id="ytick_5">
     <g id="line2d_31">
      <path d="M 58.88 198.812364 
L 997.2 198.812364 
" clip-path="url(#p7c9b4fae1b)" style="fill: none; stroke: #b0b0b0; stroke-opacity: 0.2; stroke-width: 0.8; stroke-linecap: square"/>
     </g>
     <g id="line2d_32">
      <g>
       <use xlink:href="#m74c4def020" x="58.88" y="198.812364" style="stroke: #000000; stroke-width: 0.8"/>
      </g>
     </g>
     <g id="text_17">
      <!-- 0.4 -->
      <g transform="translate(35.976875 202.611582) scale(0.1 -0.1)">
       <use xlink:href="#DejaVuSans-30"/>
       <use xlink:href="#DejaVuSans-2e" transform="translate(63.623047 0)"/>
       <use xlink:href="#DejaVuSans-34" transform="translate(95.410156 0)"/>
      </g>
     </g>
    </g>
    <g id="ytick_6">
     <g id="line2d_33">
      <path d="M 58.88 156.957333 
L 997.2 156.957333 
" clip-path="url(#p7c9b4fae1b)" style="fill: none; stroke: #b0b0b0; stroke-opacity: 0.2; stroke-width: 0.8; stroke-linecap: square"/>
     </g>
     <g id="line2d_34">
      <g>
       <use xlink:href="#m74c4def020" x="58.88" y="156.957333" style="stroke: #000000; stroke-width: 0.8"/>
      </g>
     </g>
     <g id="text_18">
      <!-- 0.6 -->
      <g transform="translate(35.976875 160.756552) scale(0.1 -0.1)">
       <use xlink:href="#DejaVuSans-30"/>
       <use xlink:href="#DejaVuSans-2e" transform="translate(63.623047 0)"/>
       <use xlink:href="#DejaVuSans-36" transform="translate(95.410156 0)"/>
      </g>
     </g>
    </g>
    <g id="ytick_7">
     <g id="line2d_35">
      <path d="M 58.88 115.102303 
L 997.2 115.102303 
" clip-path="url(#p7c9b4fae1b)" style="fill: none; stroke: #b0b0b0; stroke-opacity: 0.2; stroke-width: 0.8; stroke-linecap: square"/>
     </g>
     <g id="line2d_36">
      <g>
       <use xlink:href="#m74c4def020" x="58.88" y="115.102303" style="stroke: #000000; stroke-width: 0.8"/>
      </g>
     </g>
     <g id="text_19">
      <!-- 0.8 -->
      <g transform="translate(35.976875 118.901522) scale(0.1 -0.1)">
       <use xlink:href="#DejaVuSans-30"/>
       <use xlink:href="#DejaVuSans-2e" transform="translate(63.623047 0)"/>
       <use xlink:href="#DejaVuSans-38" transform="translate(95.410156 0)"/>
      </g>
     </g>
    </g>
    <g id="ytick_8">
     <g id="line2d_37">
      <path d="M 58.88 73.247273 
L 997.2 73.247273 
" clip-path="url(#p7c9b4fae1b)" style="fill: none; stroke: #b0b0b0; stroke-opacity: 0.2; stroke-width: 0.8; stroke-linecap: square"/>
     </g>
     <g id="line2d_38">
      <g>
       <use xlink:href="#m74c4def020" x="58.88" y="73.247273" style="stroke: #000000; stroke-width: 0.8"/>
      </g>
     </g>
     <g id="text_20">
      <!-- 1.0 -->
      <g transform="translate(35.976875 77.046491) scale(0.1 -0.1)">
       <use xlink:href="#DejaVuSans-31"/>
       <use xlink:href="#DejaVuSans-2e" transform="translate(63.623047 0)"/>
       <use xlink:href="#DejaVuSans-30" transform="translate(95.410156 0)"/>
      </g>
     </g>
    </g>
    <g id="text_21">
     <!-- Score -->
     <g transform="translate(21.101562 231.310812) rotate(-90) scale(0.12 -0.12)">
      <defs>
       <path id="DejaVuSans-6f" d="M 1959 3097 
Q 1497 3097 1228 2736 
Q 959 2375 959 1747 
Q 959 1119 1226 758 
Q 1494 397 1959 397 
Q 2419 397 2687 759 
Q 2956 1122 2956 1747 
Q 2956 2369 2687 2733 
Q 2419 3097 1959 3097 
z
M 1959 3584 
Q 2709 3584 3137 3096 
Q 3566 2609 3566 1747 
Q 3566 888 3137 398 
Q 2709 -91 1959 -91 
Q 1206 -91 779 398 
Q 353 888 353 1747 
Q 353 2609 779 3096 
Q 1206 3584 1959 3584 
z
" transform="scale(0.015625)"/>
       <path id="DejaVuSans-72" d="M 2631 2963 
Q 2534 3019 2420 3045 
Q 2306 3072 2169 3072 
Q 1681 3072 1420 2755 
Q 1159 2438 1159 1844 
L 1159 0 
L 581 0 
L 581 3500 
L 1159 3500 
L 1159 2956 
Q 1341 3275 1631 3429 
Q 1922 3584 2338 3584 
Q 2397 3584 2469 3576 
Q 2541 3569 2628 3553 
L 2631 2963 
z
" transform="scale(0.015625)"/>
      </defs>
      <use xlink:href="#DejaVuSans-53"/>
      <use xlink:href="#DejaVuSans-63" transform="translate(63.476562 0)"/>
      <use xlink:href="#DejaVuSans-6f" transform="translate(118.457031 0)"/>
      <use xlink:href="#DejaVuSans-72" transform="translate(179.638672 0)"/>
      <use xlink:href="#DejaVuSans-65" transform="translate(218.501953 0)"/>
     </g>
    </g>
   </g>
   <g id="line2d_39">
    <path d="M 101.530909 299.264436 
L 215.266667 292.986182 
L 272.134545 299.264436 
L 385.870303 307.635442 
L 499.606061 303.449939 
L 556.473939 328.562958 
L 613.341818 322.284703 
L 670.209697 318.0992 
L 727.077576 311.820945 
L 783.945455 286.707927 
L 954.549091 269.965915 
" clip-path="url(#p7c9b4fae1b)" style="fill: none; stroke: #2563eb; stroke-width: 2.5; stroke-linecap: square"/>
    <defs>
     <path id="ma11e572996" d="M 0 3 
C 0.795609 3 1.55874 2.683901 2.12132 2.12132 
C 2.683901 1.55874 3 0.795609 3 0 
C 3 -0.795609 2.683901 -1.55874 2.12132 -2.12132 
C 1.55874 -2.683901 0.795609 -3 0 -3 
C -0.795609 -3 -1.55874 -2.683901 -2.12132 -2.12132 
C -2.683901 -1.55874 -3 -0.795609 -3 0 
C -3 0.795609 -2.683901 1.55874 -2.12132 2.12132 
C -1.55874 2.683901 -0.795609 3 0 3 
z
" style="stroke: #2563eb"/>
    </defs>
    <g clip-path="url(#p7c9b4fae1b)">
     <use xlink:href="#ma11e572996" x="101.530909" y="299.264436" style="fill: #2563eb; stroke: #2563eb"/>
     <use xlink:href="#ma11e572996" x="215.266667" y="292.986182" style="fill: #2563eb; stroke: #2563eb"/>
     <use xlink:href="#ma11e572996" x="272.134545" y="299.264436" style="fill: #2563eb; stroke: #2563eb"/>
     <use xlink:href="#ma11e572996" x="385.870303" y="307.635442" style="fill: #2563eb; stroke: #2563eb"/>
     <use xlink:href="#ma11e572996" x="499.606061" y="303.449939" style="fill: #2563eb; stroke: #2563eb"/>
     <use xlink:href="#ma11e572996" x="556.473939" y="328.562958" style="fill: #2563eb; stroke: #2563eb"/>
     <use xlink:href="#ma11e572996" x="613.341818" y="322.284703" style="fill: #2563eb; stroke: #2563eb"/>
     <use xlink:href="#ma11e572996" x="670.209697" y="318.0992" style="fill: #2563eb; stroke: #2563eb"/>
     <use xlink:href="#ma11e572996" x="727.077576" y="311.820945" style="fill: #2563eb; stroke: #2563eb"/>
     <use xlink:href="#ma11e572996" x="783.945455" y="286.707927" style="fill: #2563eb; stroke: #2563eb"/>
     <use xlink:href="#ma11e572996" x="954.549091" y="269.965915" style="fill: #2563eb; stroke: #2563eb"/>
    </g>
   </g>
   <g id="line2d_40">
    <path d="M 101.530909 295.078933 
L 215.266667 286.707927 
L 272.134545 295.078933 
L 385.870303 301.357188 
L 499.606061 295.078933 
L 556.473939 316.006448 
L 613.341818 307.635442 
L 670.209697 301.357188 
L 727.077576 290.89343 
L 783.945455 261.594909 
L 954.549091 236.481891 
" clip-path="url(#p7c9b4fae1b)" style="fill: none; stroke: #dc2626; stroke-width: 2.5; stroke-linecap: square"/>
    <defs>
     <path id="m177fb690e7" d="M -3 3 
L 3 3 
L 3 -3 
L -3 -3 
z
" style="stroke: #dc2626; stroke-linejoin: miter"/>
    </defs>
    <g clip-path="url(#p7c9b4fae1b)">
     <use xlink:href="#m177fb690e7" x="101.530909" y="295.078933" style="fill: #dc2626; stroke: #dc2626; stroke-linejoin: miter"/>
     <use xlink:href="#m177fb690e7" x="215.266667" y="286.707927" style="fill: #dc2626; stroke: #dc2626; stroke-linejoin: miter"/>
     <use xlink:href="#m177fb690e7" x="272.134545" y="295.078933" style="fill: #dc2626; stroke: #dc2626; stroke-linejoin: miter"/>
     <use xlink:href="#m177fb690e7" x="385.870303" y="301.357188" style="fill: #dc2626; stroke: #dc2626; stroke-linejoin: miter"/>
     <use xlink:href="#m177fb690e7" x="499.606061" y="295.078933" style="fill: #dc2626; stroke: #dc2626; stroke-linejoin: miter"/>
     <use xlink:href="#m177fb690e7" x="556.473939" y="316.006448" style="fill: #dc2626; stroke: #dc2626; stroke-linejoin: miter"/>
     <use xlink:href="#m177fb690e7" x="613.341818" y="307.635442" style="fill: #dc2626; stroke: #dc2626; stroke-linejoin: miter"/>
     <use xlink:href="#m177fb690e7" x="670.209697" y="301.357188" style="fill: #dc2626; stroke: #dc2626; stroke-linejoin: miter"/>
     <use xlink:href="#m177fb690e7" x="727.077576" y="290.89343" style="fill: #dc2626; stroke: #dc2626; stroke-linejoin: miter"/>
     <use xlink:href="#m177fb690e7" x="783.945455" y="261.594909" style="fill: #dc2626; stroke: #dc2626; stroke-linejoin: miter"/>
     <use xlink:href="#m177fb690e7" x="954.549091" y="236.481891" style="fill: #dc2626; stroke: #dc2626; stroke-linejoin: miter"/>
    </g>
   </g>
   <g id="line2d_41">
    <path d="M 101.530909 307.635442 
L 215.266667 303.449939 
L 272.134545 307.635442 
L 385.870303 303.449939 
L 499.606061 301.357188 
L 556.473939 318.0992 
L 613.341818 313.913697 
L 670.209697 305.542691 
L 727.077576 301.357188 
L 783.945455 274.151418 
L 954.549091 261.594909 
" clip-path="url(#p7c9b4fae1b)" style="fill: none; stroke: #16a34a; stroke-opacity: 0.8; stroke-width: 2; stroke-linecap: square"/>
    <defs>
     <path id="m1057766e70" d="M 0 -2.5 
L -2.5 2.5 
L 2.5 2.5 
z
" style="stroke: #16a34a; stroke-opacity: 0.8; stroke-linejoin: miter"/>
    </defs>
    <g clip-path="url(#p7c9b4fae1b)">
     <use xlink:href="#m1057766e70" x="101.530909" y="307.635442" style="fill: #16a34a; fill-opacity: 0.8; stroke: #16a34a; stroke-opacity: 0.8; stroke-linejoin: miter"/>
     <use xlink:href="#m1057766e70" x="215.266667" y="303.449939" style="fill: #16a34a; fill-opacity: 0.8; stroke: #16a34a; stroke-opacity: 0.8; stroke-linejoin: miter"/>
     <use xlink:href="#m1057766e70" x="272.134545" y="307.635442" style="fill: #16a34a; fill-opacity: 0.8; stroke: #16a34a; stroke-opacity: 0.8; stroke-linejoin: miter"/>
     <use xlink:href="#m1057766e70" x="385.870303" y="303.449939" style="fill: #16a34a; fill-opacity: 0.8; stroke: #16a34a; stroke-opacity: 0.8; stroke-linejoin: miter"/>
     <use xlink:href="#m1057766e70" x="499.606061" y="301.357188" style="fill: #16a34a; fill-opacity: 0.8; stroke: #16a34a; stroke-opacity: 0.8; stroke-linejoin: miter"/>
     <use xlink:href="#m1057766e70" x="556.473939" y="318.0992" style="fill: #16a34a; fill-opacity: 0.8; stroke: #16a34a; stroke-opacity: 0.8; stroke-linejoin: miter"/>
     <use xlink:href="#m1057766e70" x="613.341818" y="313.913697" style="fill: #16a34a; fill-opacity: 0.8; stroke: #16a34a; stroke-opacity: 0.8; stroke-linejoin: miter"/>
     <use xlink:href="#m1057766e70" x="670.209697" y="305.542691" style="fill: #16a34a; fill-opacity: 0.8; stroke: #16a34a; stroke-opacity: 0.8; stroke-linejoin: miter"/>
     <use xlink:href="#m1057766e70" x="727.077576" y="301.357188" style="fill: #16a34a; fill-opacity: 0.8; stroke: #16a34a; stroke-opacity: 0.8; stroke-linejoin: miter"/>
     <use xlink:href="#m1057766e70" x="783.945455" y="274.151418" style="fill: #16a34a; fill-opacity: 0.8; stroke: #16a34a; stroke-opacity: 0.8; stroke-linejoin: miter"/>
     <use xlink:href="#m1057766e70" x="954.549091" y="261.594909" style="fill: #16a34a; fill-opacity: 0.8; stroke: #16a34a; stroke-opacity: 0.8; stroke-linejoin: miter"/>
    </g>
   </g>
   <g id="line2d_42">
    <path d="M 101.530909 255.316655 
L 215.266667 259.502158 
L 272.134545 246.945648 
L 385.870303 234.389139 
L 499.606061 230.203636 
L 556.473939 200.905115 
L 613.341818 211.368873 
L 670.209697 215.554376 
L 727.077576 223.925382 
L 783.945455 242.760145 
L 954.549091 261.594909 
" clip-path="url(#p7c9b4fae1b)" style="fill: none; stroke: #ea580c; stroke-opacity: 0.6; stroke-width: 1.5; stroke-linecap: square"/>
    <defs>
     <path id="me3b17cebad" d="M -0 2.828427 
L 2.828427 0 
L 0 -2.828427 
L -2.828427 -0 
z
" style="stroke: #ea580c; stroke-opacity: 0.6; stroke-linejoin: miter"/>
    </defs>
    <g clip-path="url(#p7c9b4fae1b)">
     <use xlink:href="#me3b17cebad" x="101.530909" y="255.316655" style="fill: #ea580c; fill-opacity: 0.6; stroke: #ea580c; stroke-opacity: 0.6; stroke-linejoin: miter"/>
     <use xlink:href="#me3b17cebad" x="215.266667" y="259.502158" style="fill: #ea580c; fill-opacity: 0.6; stroke: #ea580c; stroke-opacity: 0.6; stroke-linejoin: miter"/>
     <use xlink:href="#me3b17cebad" x="272.134545" y="246.945648" style="fill: #ea580c; fill-opacity: 0.6; stroke: #ea580c; stroke-opacity: 0.6; stroke-linejoin: miter"/>
     <use xlink:href="#me3b17cebad" x="385.870303" y="234.389139" style="fill: #ea580c; fill-opacity: 0.6; stroke: #ea580c; stroke-opacity: 0.6; stroke-linejoin: miter"/>
     <use xlink:href="#me3b17cebad" x="499.606061" y="230.203636" style="fill: #ea580c; fill-opacity: 0.6; stroke: #ea580c; stroke-opacity: 0.6; stroke-linejoin: miter"/>
     <use xlink:href="#me3b17cebad" x="556.473939" y="200.905115" style="fill: #ea580c; fill-opacity: 0.6; stroke: #ea580c; stroke-opacity: 0.6; stroke-linejoin: miter"/>
     <use xlink:href="#me3b17cebad" x="613.341818" y="211.368873" style="fill: #ea580c; fill-opacity: 0.6; stroke: #ea580c; stroke-opacity: 0.6; stroke-linejoin: miter"/>
     <use xlink:href="#me3b17cebad" x="670.209697" y="215.554376" style="fill: #ea580c; fill-opacity: 0.6; stroke: #ea580c; stroke-opacity: 0.6; stroke-linejoin: miter"/>
     <use xlink:href="#me3b17cebad" x="727.077576" y="223.925382" style="fill: #ea580c; fill-opacity: 0.6; stroke: #ea580c; stroke-opacity: 0.6; stroke-linejoin: miter"/>
     <use xlink:href="#me3b17cebad" x="783.945455" y="242.760145" style="fill: #ea580c; fill-opacity: 0.6; stroke: #ea580c; stroke-opacity: 0.6; stroke-linejoin: miter"/>
     <use xlink:href="#me3b17cebad" x="954.549091" y="261.594909" style="fill: #ea580c; fill-opacity: 0.6; stroke: #ea580c; stroke-opacity: 0.6; stroke-linejoin: miter"/>
    </g>
   </g>
   <g id="line2d_43">
    <path d="M 58.88 282.522424 
L 997.2 282.522424 
" clip-path="url(#p7c9b4fae1b)" style="fill: none; stroke-dasharray: 3.7,1.6; stroke-dashoffset: 0; stroke: #808080; stroke-opacity: 0.4"/>
   </g>
   <g id="patch_3">
    <path d="M 58.88 387.16 
L 58.88 41.856 
" style="fill: none; stroke: #000000; stroke-width: 0.8; stroke-linejoin: miter; stroke-linecap: square"/>
   </g>
   <g id="patch_4">
    <path d="M 997.2 387.16 
L 997.2 41.856 
" style="fill: none; stroke: #000000; stroke-width: 0.8; stroke-linejoin: miter; stroke-linecap: square"/>
   </g>
   <g id="patch_5">
    <path d="M 58.88 387.16 
L 997.2 387.16 
" style="fill: none; stroke: #000000; stroke-width: 0.8; stroke-linejoin: miter; stroke-linecap: square"/>
   </g>
   <g id="patch_6">
    <path d="M 58.88 41.856 
L 997.2 41.856 
" style="fill: none; stroke: #000000; stroke-width: 0.8; stroke-linejoin: miter; stroke-linecap: square"/>
   </g>
   <g id="patch_7">
    <path d="M 101.530909 234.201675 
Q 101.530909 243.760379 101.530909 253.319083 
" style="fill: none; stroke: #bbbbbb; stroke-width: 0.5; stroke-linecap: round"/>
   </g>
   <g id="text_22">
    <!-- "Tolerable" -->
    <g style="fill: #555555" transform="translate(82.569112 220.909386) scale(0.07 -0.07)">
     <defs>
      <path id="DejaVuSans-22" d="M 1147 4666 
L 1147 2931 
L 616 2931 
L 616 4666 
L 1147 4666 
z
M 2328 4666 
L 2328 2931 
L 1797 2931 
L 1797 4666 
L 2328 4666 
z
" transform="scale(0.015625)"/>
      <path id="DejaVuSans-54" d="M -19 4666 
L 3928 4666 
L 3928 4134 
L 2272 4134 
L 2272 0 
L 1638 0 
L 1638 4134 
L -19 4134 
L -19 4666 
z
" transform="scale(0.015625)"/>
      <path id="DejaVuSans-6c" d="M 603 4863 
L 1178 4863 
L 1178 0 
L 603 0 
L 603 4863 
z
" transform="scale(0.015625)"/>
      <path id="DejaVuSans-61" d="M 2194 1759 
Q 1497 1759 1228 1600 
Q 959 1441 959 1056 
Q 959 750 1161 570 
Q 1363 391 1709 391 
Q 2188 391 2477 730 
Q 2766 1069 2766 1631 
L 2766 1759 
L 2194 1759 
z
M 3341 1997 
L 3341 0 
L 2766 0 
L 2766 531 
Q 2569 213 2275 61 
Q 1981 -91 1556 -91 
Q 1019 -91 701 211 
Q 384 513 384 1019 
Q 384 1609 779 1909 
Q 1175 2209 1959 2209 
L 2766 2209 
L 2766 2266 
Q 2766 2663 2505 2880 
Q 2244 3097 1772 3097 
Q 1472 3097 1187 3025 
Q 903 2953 641 2809 
L 641 3341 
Q 956 3463 1253 3523 
Q 1550 3584 1831 3584 
Q 2591 3584 2966 3190 
Q 3341 2797 3341 1997 
z
" transform="scale(0.015625)"/>
      <path id="DejaVuSans-62" d="M 3116 1747 
Q 3116 2381 2855 2742 
Q 2594 3103 2138 3103 
Q 1681 3103 1420 2742 
Q 1159 2381 1159 1747 
Q 1159 1113 1420 752 
Q 1681 391 2138 391 
Q 2594 391 2855 752 
Q 3116 1113 3116 1747 
z
M 1159 2969 
Q 1341 3281 1617 3432 
Q 1894 3584 2278 3584 
Q 2916 3584 3314 3078 
Q 3713 2572 3713 1747 
Q 3713 922 3314 415 
Q 2916 -91 2278 -91 
Q 1894 -91 1617 61 
Q 1341 213 1159 525 
L 1159 0 
L 581 0 
L 581 4863 
L 1159 4863 
L 1159 2969 
z
" transform="scale(0.015625)"/>
     </defs>
     <use xlink:href="#DejaVuSans-22"/>
     <use xlink:href="#DejaVuSans-54" transform="translate(45.996094 0)"/>
     <use xlink:href="#DejaVuSans-6f" transform="translate(90.080078 0)"/>
     <use xlink:href="#DejaVuSans-6c" transform="translate(151.261719 0)"/>
     <use xlink:href="#DejaVuSans-65" transform="translate(179.044922 0)"/>
     <use xlink:href="#DejaVuSans-72" transform="translate(240.568359 0)"/>
     <use xlink:href="#DejaVuSans-61" transform="translate(281.681641 0)"/>
     <use xlink:href="#DejaVuSans-62" transform="translate(342.960938 0)"/>
     <use xlink:href="#DejaVuSans-6c" transform="translate(406.4375 0)"/>
     <use xlink:href="#DejaVuSans-65" transform="translate(434.220703 0)"/>
     <use xlink:href="#DejaVuSans-22" transform="translate(495.744141 0)"/>
    </g>
    <!-- insult -->
    <g style="fill: #555555" transform="translate(91.954581 228.747855) scale(0.07 -0.07)">
     <defs>
      <path id="DejaVuSans-69" d="M 603 3500 
L 1178 3500 
L 1178 0 
L 603 0 
L 603 3500 
z
M 603 4863 
L 1178 4863 
L 1178 4134 
L 603 4134 
L 603 4863 
z
" transform="scale(0.015625)"/>
      <path id="DejaVuSans-73" d="M 2834 3397 
L 2834 2853 
Q 2591 2978 2328 3040 
Q 2066 3103 1784 3103 
Q 1356 3103 1142 2972 
Q 928 2841 928 2578 
Q 928 2378 1081 2264 
Q 1234 2150 1697 2047 
L 1894 2003 
Q 2506 1872 2764 1633 
Q 3022 1394 3022 966 
Q 3022 478 2636 193 
Q 2250 -91 1575 -91 
Q 1294 -91 989 -36 
Q 684 19 347 128 
L 347 722 
Q 666 556 975 473 
Q 1284 391 1588 391 
Q 1994 391 2212 530 
Q 2431 669 2431 922 
Q 2431 1156 2273 1281 
Q 2116 1406 1581 1522 
L 1381 1569 
Q 847 1681 609 1914 
Q 372 2147 372 2553 
Q 372 3047 722 3315 
Q 1072 3584 1716 3584 
Q 2034 3584 2315 3537 
Q 2597 3491 2834 3397 
z
" transform="scale(0.015625)"/>
      <path id="DejaVuSans-75" d="M 544 1381 
L 544 3500 
L 1119 3500 
L 1119 1403 
Q 1119 906 1312 657 
Q 1506 409 1894 409 
Q 2359 409 2629 706 
Q 2900 1003 2900 1516 
L 2900 3500 
L 3475 3500 
L 3475 0 
L 2900 0 
L 2900 538 
Q 2691 219 2414 64 
Q 2138 -91 1772 -91 
Q 1169 -91 856 284 
Q 544 659 544 1381 
z
M 1991 3584 
L 1991 3584 
z
" transform="scale(0.015625)"/>
      <path id="DejaVuSans-74" d="M 1172 4494 
L 1172 3500 
L 2356 3500 
L 2356 3053 
L 1172 3053 
L 1172 1153 
Q 1172 725 1289 603 
Q 1406 481 1766 481 
L 2356 481 
L 2356 0 
L 1766 0 
Q 1100 0 847 248 
Q 594 497 594 1153 
L 594 3053 
L 172 3053 
L 172 3500 
L 594 3500 
L 594 4494 
L 1172 4494 
z
" transform="scale(0.015625)"/>
     </defs>
     <use xlink:href="#DejaVuSans-69"/>
     <use xlink:href="#DejaVuSans-6e" transform="translate(27.783203 0)"/>
     <use xlink:href="#DejaVuSans-73" transform="translate(91.162109 0)"/>
     <use xlink:href="#DejaVuSans-75" transform="translate(143.261719 0)"/>
     <use xlink:href="#DejaVuSans-6c" transform="translate(206.640625 0)"/>
     <use xlink:href="#DejaVuSans-74" transform="translate(234.423828 0)"/>
    </g>
   </g>
   <g id="patch_8">
    <path d="M 272.134545 225.830669 
Q 272.134545 235.389373 272.134545 244.948077 
" style="fill: none; stroke: #bbbbbb; stroke-width: 0.5; stroke-linecap: round"/>
   </g>
   <g id="text_23">
    <!-- Accomplished -->
    <g style="fill: #555555" transform="translate(247.818295 212.53838) scale(0.07 -0.07)">
     <defs>
      <path id="DejaVuSans-41" d="M 2188 4044 
L 1331 1722 
L 3047 1722 
L 2188 4044 
z
M 1831 4666 
L 2547 4666 
L 4325 0 
L 3669 0 
L 3244 1197 
L 1141 1197 
L 716 0 
L 50 0 
L 1831 4666 
z
" transform="scale(0.015625)"/>
      <path id="DejaVuSans-6d" d="M 3328 2828 
Q 3544 3216 3844 3400 
Q 4144 3584 4550 3584 
Q 5097 3584 5394 3201 
Q 5691 2819 5691 2113 
L 5691 0 
L 5113 0 
L 5113 2094 
Q 5113 2597 4934 2840 
Q 4756 3084 4391 3084 
Q 3944 3084 3684 2787 
Q 3425 2491 3425 1978 
L 3425 0 
L 2847 0 
L 2847 2094 
Q 2847 2600 2669 2842 
Q 2491 3084 2119 3084 
Q 1678 3084 1418 2786 
Q 1159 2488 1159 1978 
L 1159 0 
L 581 0 
L 581 3500 
L 1159 3500 
L 1159 2956 
Q 1356 3278 1631 3431 
Q 1906 3584 2284 3584 
Q 2666 3584 2933 3390 
Q 3200 3197 3328 2828 
z
" transform="scale(0.015625)"/>
      <path id="DejaVuSans-70" d="M 1159 525 
L 1159 -1331 
L 581 -1331 
L 581 3500 
L 1159 3500 
L 1159 2969 
Q 1341 3281 1617 3432 
Q 1894 3584 2278 3584 
Q 2916 3584 3314 3078 
Q 3713 2572 3713 1747 
Q 3713 922 3314 415 
Q 2916 -91 2278 -91 
Q 1894 -91 1617 61 
Q 1341 213 1159 525 
z
M 3116 1747 
Q 3116 2381 2855 2742 
Q 2594 3103 2138 3103 
Q 1681 3103 1420 2742 
Q 1159 2381 1159 1747 
Q 1159 1113 1420 752 
Q 1681 391 2138 391 
Q 2594 391 2855 752 
Q 3116 1113 3116 1747 
z
" transform="scale(0.015625)"/>
      <path id="DejaVuSans-68" d="M 3513 2113 
L 3513 0 
L 2938 0 
L 2938 2094 
Q 2938 2591 2744 2837 
Q 2550 3084 2163 3084 
Q 1697 3084 1428 2787 
Q 1159 2491 1159 1978 
L 1159 0 
L 581 0 
L 581 4863 
L 1159 4863 
L 1159 2956 
Q 1366 3272 1645 3428 
Q 1925 3584 2291 3584 
Q 2894 3584 3203 3211 
Q 3513 2838 3513 2113 
z
" transform="scale(0.015625)"/>
      <path id="DejaVuSans-64" d="M 2906 2969 
L 2906 4863 
L 3481 4863 
L 3481 0 
L 2906 0 
L 2906 525 
Q 2725 213 2448 61 
Q 2172 -91 1784 -91 
Q 1150 -91 751 415 
Q 353 922 353 1747 
Q 353 2572 751 3078 
Q 1150 3584 1784 3584 
Q 2172 3584 2448 3432 
Q 2725 3281 2906 2969 
z
M 947 1747 
Q 947 1113 1208 752 
Q 1469 391 1925 391 
Q 2381 391 2643 752 
Q 2906 1113 2906 1747 
Q 2906 2381 2643 2742 
Q 2381 3103 1925 3103 
Q 1469 3103 1208 2742 
Q 947 2381 947 1747 
z
" transform="scale(0.015625)"/>
     </defs>
     <use xlink:href="#DejaVuSans-41"/>
     <use xlink:href="#DejaVuSans-63" transform="translate(66.658203 0)"/>
     <use xlink:href="#DejaVuSans-63" transform="translate(121.638672 0)"/>
     <use xlink:href="#DejaVuSans-6f" transform="translate(176.619141 0)"/>
     <use xlink:href="#DejaVuSans-6d" transform="translate(237.800781 0)"/>
     <use xlink:href="#DejaVuSans-70" transform="translate(335.212891 0)"/>
     <use xlink:href="#DejaVuSans-6c" transform="translate(398.689453 0)"/>
     <use xlink:href="#DejaVuSans-69" transform="translate(426.472656 0)"/>
     <use xlink:href="#DejaVuSans-73" transform="translate(454.255859 0)"/>
     <use xlink:href="#DejaVuSans-68" transform="translate(506.355469 0)"/>
     <use xlink:href="#DejaVuSans-65" transform="translate(569.734375 0)"/>
     <use xlink:href="#DejaVuSans-64" transform="translate(631.257812 0)"/>
    </g>
    <!-- women debate -->
    <g style="fill: #555555" transform="translate(245.969311 220.376849) scale(0.07 -0.07)">
     <defs>
      <path id="DejaVuSans-77" d="M 269 3500 
L 844 3500 
L 1563 769 
L 2278 3500 
L 2956 3500 
L 3675 769 
L 4391 3500 
L 4966 3500 
L 4050 0 
L 3372 0 
L 2619 2869 
L 1863 0 
L 1184 0 
L 269 3500 
z
" transform="scale(0.015625)"/>
      <path id="DejaVuSans-20" transform="scale(0.015625)"/>
     </defs>
     <use xlink:href="#DejaVuSans-77"/>
     <use xlink:href="#DejaVuSans-6f" transform="translate(81.787109 0)"/>
     <use xlink:href="#DejaVuSans-6d" transform="translate(142.96875 0)"/>
     <use xlink:href="#DejaVuSans-65" transform="translate(240.380859 0)"/>
     <use xlink:href="#DejaVuSans-6e" transform="translate(301.904297 0)"/>
     <use xlink:href="#DejaVuSans-20" transform="translate(365.283203 0)"/>
     <use xlink:href="#DejaVuSans-64" transform="translate(397.070312 0)"/>
     <use xlink:href="#DejaVuSans-65" transform="translate(460.546875 0)"/>
     <use xlink:href="#DejaVuSans-62" transform="translate(522.070312 0)"/>
     <use xlink:href="#DejaVuSans-61" transform="translate(585.546875 0)"/>
     <use xlink:href="#DejaVuSans-74" transform="translate(646.826172 0)"/>
     <use xlink:href="#DejaVuSans-65" transform="translate(686.035156 0)"/>
    </g>
   </g>
   <g id="patch_9">
    <path d="M 385.870303 213.27416 
Q 385.870303 222.832864 385.870303 232.391567 
" style="fill: none; stroke: #bbbbbb; stroke-width: 0.5; stroke-linecap: round"/>
   </g>
   <g id="text_24">
    <!-- Netherfield -->
    <g style="fill: #555555" transform="translate(366.363272 199.981871) scale(0.07 -0.07)">
     <defs>
      <path id="DejaVuSans-4e" d="M 628 4666 
L 1478 4666 
L 3547 763 
L 3547 4666 
L 4159 4666 
L 4159 0 
L 3309 0 
L 1241 3903 
L 1241 0 
L 628 0 
L 628 4666 
z
" transform="scale(0.015625)"/>
      <path id="DejaVuSans-66" d="M 2375 4863 
L 2375 4384 
L 1825 4384 
Q 1516 4384 1395 4259 
Q 1275 4134 1275 3809 
L 1275 3500 
L 2222 3500 
L 2222 3053 
L 1275 3053 
L 1275 0 
L 697 0 
L 697 3053 
L 147 3053 
L 147 3500 
L 697 3500 
L 697 3744 
Q 697 4328 969 4595 
Q 1241 4863 1831 4863 
L 2375 4863 
z
" transform="scale(0.015625)"/>
     </defs>
     <use xlink:href="#DejaVuSans-4e"/>
     <use xlink:href="#DejaVuSans-65" transform="translate(74.804688 0)"/>
     <use xlink:href="#DejaVuSans-74" transform="translate(136.328125 0)"/>
     <use xlink:href="#DejaVuSans-68" transform="translate(175.537109 0)"/>
     <use xlink:href="#DejaVuSans-65" transform="translate(238.916016 0)"/>
     <use xlink:href="#DejaVuSans-72" transform="translate(300.439453 0)"/>
     <use xlink:href="#DejaVuSans-66" transform="translate(341.552734 0)"/>
     <use xlink:href="#DejaVuSans-69" transform="translate(376.757812 0)"/>
     <use xlink:href="#DejaVuSans-65" transform="translate(404.541016 0)"/>
     <use xlink:href="#DejaVuSans-6c" transform="translate(466.064453 0)"/>
     <use xlink:href="#DejaVuSans-64" transform="translate(493.847656 0)"/>
    </g>
    <!-- Ball -->
    <g style="fill: #555555" transform="translate(379.379444 207.82034) scale(0.07 -0.07)">
     <defs>
      <path id="DejaVuSans-42" d="M 1259 2228 
L 1259 519 
L 2272 519 
Q 2781 519 3026 730 
Q 3272 941 3272 1375 
Q 3272 1813 3026 2020 
Q 2781 2228 2272 2228 
L 1259 2228 
z
M 1259 4147 
L 1259 2741 
L 2194 2741 
Q 2656 2741 2882 2914 
Q 3109 3088 3109 3444 
Q 3109 3797 2882 3972 
Q 2656 4147 2194 4147 
L 1259 4147 
z
M 628 4666 
L 2241 4666 
Q 2963 4666 3353 4366 
Q 3744 4066 3744 3513 
Q 3744 3084 3544 2831 
Q 3344 2578 2956 2516 
Q 3422 2416 3680 2098 
Q 3938 1781 3938 1306 
Q 3938 681 3513 340 
Q 3088 0 2303 0 
L 628 0 
L 628 4666 
z
" transform="scale(0.015625)"/>
     </defs>
     <use xlink:href="#DejaVuSans-42"/>
     <use xlink:href="#DejaVuSans-61" transform="translate(68.603516 0)"/>
     <use xlink:href="#DejaVuSans-6c" transform="translate(129.882812 0)"/>
     <use xlink:href="#DejaVuSans-6c" transform="translate(157.666016 0)"/>
    </g>
   </g>
   <g id="patch_10">
    <path d="M 556.473939 234.574053 
Q 556.473939 218.740363 556.473939 202.906674 
" style="fill: none; stroke: #bbbbbb; stroke-width: 0.5; stroke-linecap: round"/>
   </g>
   <g id="text_25">
    <!-- First proposal -->
    <g style="fill: #555555" transform="translate(532.968158 243.893549) scale(0.07 -0.07)">
     <defs>
      <path id="DejaVuSans-46" d="M 628 4666 
L 3309 4666 
L 3309 4134 
L 1259 4134 
L 1259 2759 
L 3109 2759 
L 3109 2228 
L 1259 2228 
L 1259 0 
L 628 0 
L 628 4666 
z
" transform="scale(0.015625)"/>
     </defs>
     <use xlink:href="#DejaVuSans-46"/>
     <use xlink:href="#DejaVuSans-69" transform="translate(50.269531 0)"/>
     <use xlink:href="#DejaVuSans-72" transform="translate(78.052734 0)"/>
     <use xlink:href="#DejaVuSans-73" transform="translate(119.166016 0)"/>
     <use xlink:href="#DejaVuSans-74" transform="translate(171.265625 0)"/>
     <use xlink:href="#DejaVuSans-20" transform="translate(210.474609 0)"/>
     <use xlink:href="#DejaVuSans-70" transform="translate(242.261719 0)"/>
     <use xlink:href="#DejaVuSans-72" transform="translate(305.738281 0)"/>
     <use xlink:href="#DejaVuSans-6f" transform="translate(344.601562 0)"/>
     <use xlink:href="#DejaVuSans-70" transform="translate(405.783203 0)"/>
     <use xlink:href="#DejaVuSans-6f" transform="translate(469.259766 0)"/>
     <use xlink:href="#DejaVuSans-73" transform="translate(530.441406 0)"/>
     <use xlink:href="#DejaVuSans-61" transform="translate(582.541016 0)"/>
     <use xlink:href="#DejaVuSans-6c" transform="translate(643.820312 0)"/>
    </g>
    <!-- (refused) -->
    <g style="fill: #555555" transform="translate(540.580111 251.732017) scale(0.07 -0.07)">
     <defs>
      <path id="DejaVuSans-28" d="M 1984 4856 
Q 1566 4138 1362 3434 
Q 1159 2731 1159 2009 
Q 1159 1288 1364 580 
Q 1569 -128 1984 -844 
L 1484 -844 
Q 1016 -109 783 600 
Q 550 1309 550 2009 
Q 550 2706 781 3412 
Q 1013 4119 1484 4856 
L 1984 4856 
z
" transform="scale(0.015625)"/>
      <path id="DejaVuSans-29" d="M 513 4856 
L 1013 4856 
Q 1481 4119 1714 3412 
Q 1947 2706 1947 2009 
Q 1947 1309 1714 600 
Q 1481 -109 1013 -844 
L 513 -844 
Q 928 -128 1133 580 
Q 1338 1288 1338 2009 
Q 1338 2731 1133 3434 
Q 928 4138 513 4856 
z
" transform="scale(0.015625)"/>
     </defs>
     <use xlink:href="#DejaVuSans-28"/>
     <use xlink:href="#DejaVuSans-72" transform="translate(39.013672 0)"/>
     <use xlink:href="#DejaVuSans-65" transform="translate(77.876953 0)"/>
     <use xlink:href="#DejaVuSans-66" transform="translate(139.400391 0)"/>
     <use xlink:href="#DejaVuSans-75" transform="translate(174.605469 0)"/>
     <use xlink:href="#DejaVuSans-73" transform="translate(237.984375 0)"/>
     <use xlink:href="#DejaVuSans-65" transform="translate(290.083984 0)"/>
     <use xlink:href="#DejaVuSans-64" transform="translate(351.607422 0)"/>
     <use xlink:href="#DejaVuSans-29" transform="translate(415.083984 0)"/>
    </g>
   </g>
   <g id="patch_11">
    <path d="M 613.341818 245.041845 
Q 613.341818 229.206258 613.341818 213.370672 
" style="fill: none; stroke: #bbbbbb; stroke-width: 0.5; stroke-linecap: round"/>
   </g>
   <g id="text_26">
    <!-- The Letter -->
    <g style="fill: #555555" transform="translate(595.340881 254.357306) scale(0.07 -0.07)">
     <defs>
      <path id="DejaVuSans-4c" d="M 628 4666 
L 1259 4666 
L 1259 531 
L 3531 531 
L 3531 0 
L 628 0 
L 628 4666 
z
" transform="scale(0.015625)"/>
     </defs>
     <use xlink:href="#DejaVuSans-54"/>
     <use xlink:href="#DejaVuSans-68" transform="translate(61.083984 0)"/>
     <use xlink:href="#DejaVuSans-65" transform="translate(124.462891 0)"/>
     <use xlink:href="#DejaVuSans-20" transform="translate(185.986328 0)"/>
     <use xlink:href="#DejaVuSans-4c" transform="translate(217.773438 0)"/>
     <use xlink:href="#DejaVuSans-65" transform="translate(271.736328 0)"/>
     <use xlink:href="#DejaVuSans-74" transform="translate(333.259766 0)"/>
     <use xlink:href="#DejaVuSans-74" transform="translate(372.46875 0)"/>
     <use xlink:href="#DejaVuSans-65" transform="translate(411.677734 0)"/>
     <use xlink:href="#DejaVuSans-72" transform="translate(473.201172 0)"/>
    </g>
   </g>
   <g id="patch_12">
    <path d="M 670.209697 249.223313 
Q 670.209697 233.389624 670.209697 217.555935 
" style="fill: none; stroke: #bbbbbb; stroke-width: 0.5; stroke-linecap: round"/>
   </g>
   <g id="text_27">
    <!-- Visits -->
    <g style="fill: #555555" transform="translate(660.930869 258.542809) scale(0.07 -0.07)">
     <defs>
      <path id="DejaVuSans-56" d="M 1831 0 
L 50 4666 
L 709 4666 
L 2188 738 
L 3669 4666 
L 4325 4666 
L 2547 0 
L 1831 0 
z
" transform="scale(0.015625)"/>
     </defs>
     <use xlink:href="#DejaVuSans-56"/>
     <use xlink:href="#DejaVuSans-69" transform="translate(66.158203 0)"/>
     <use xlink:href="#DejaVuSans-73" transform="translate(93.941406 0)"/>
     <use xlink:href="#DejaVuSans-69" transform="translate(146.041016 0)"/>
     <use xlink:href="#DejaVuSans-74" transform="translate(173.824219 0)"/>
     <use xlink:href="#DejaVuSans-73" transform="translate(213.033203 0)"/>
    </g>
    <!-- Pemberley -->
    <g style="fill: #555555" transform="translate(651.651494 266.381278) scale(0.07 -0.07)">
     <defs>
      <path id="DejaVuSans-50" d="M 1259 4147 
L 1259 2394 
L 2053 2394 
Q 2494 2394 2734 2622 
Q 2975 2850 2975 3272 
Q 2975 3691 2734 3919 
Q 2494 4147 2053 4147 
L 1259 4147 
z
M 628 4666 
L 2053 4666 
Q 2838 4666 3239 4311 
Q 3641 3956 3641 3272 
Q 3641 2581 3239 2228 
Q 2838 1875 2053 1875 
L 1259 1875 
L 1259 0 
L 628 0 
L 628 4666 
z
" transform="scale(0.015625)"/>
      <path id="DejaVuSans-79" d="M 2059 -325 
Q 1816 -950 1584 -1140 
Q 1353 -1331 966 -1331 
L 506 -1331 
L 506 -850 
L 844 -850 
Q 1081 -850 1212 -737 
Q 1344 -625 1503 -206 
L 1606 56 
L 191 3500 
L 800 3500 
L 1894 763 
L 2988 3500 
L 3597 3500 
L 2059 -325 
z
" transform="scale(0.015625)"/>
     </defs>
     <use xlink:href="#DejaVuSans-50"/>
     <use xlink:href="#DejaVuSans-65" transform="translate(56.677734 0)"/>
     <use xlink:href="#DejaVuSans-6d" transform="translate(118.201172 0)"/>
     <use xlink:href="#DejaVuSans-62" transform="translate(215.613281 0)"/>
     <use xlink:href="#DejaVuSans-65" transform="translate(279.089844 0)"/>
     <use xlink:href="#DejaVuSans-72" transform="translate(340.613281 0)"/>
     <use xlink:href="#DejaVuSans-6c" transform="translate(381.726562 0)"/>
     <use xlink:href="#DejaVuSans-65" transform="translate(409.509766 0)"/>
     <use xlink:href="#DejaVuSans-79" transform="translate(471.033203 0)"/>
    </g>
   </g>
   <g id="patch_13">
    <path d="M 727.077576 202.810402 
Q 727.077576 212.369106 727.077576 221.92781 
" style="fill: none; stroke: #bbbbbb; stroke-width: 0.5; stroke-linecap: round"/>
   </g>
   <g id="text_28">
    <!-- Lydia -->
    <g style="fill: #555555" transform="translate(718.036091 189.518114) scale(0.07 -0.07)">
     <use xlink:href="#DejaVuSans-4c"/>
     <use xlink:href="#DejaVuSans-79" transform="translate(46.587891 0)"/>
     <use xlink:href="#DejaVuSans-64" transform="translate(105.767578 0)"/>
     <use xlink:href="#DejaVuSans-69" transform="translate(169.244141 0)"/>
     <use xlink:href="#DejaVuSans-61" transform="translate(197.027344 0)"/>
    </g>
    <!-- elopes -->
    <g style="fill: #555555" transform="translate(715.611248 197.356582) scale(0.07 -0.07)">
     <use xlink:href="#DejaVuSans-65"/>
     <use xlink:href="#DejaVuSans-6c" transform="translate(61.523438 0)"/>
     <use xlink:href="#DejaVuSans-6f" transform="translate(89.306641 0)"/>
     <use xlink:href="#DejaVuSans-70" transform="translate(150.488281 0)"/>
     <use xlink:href="#DejaVuSans-65" transform="translate(213.964844 0)"/>
     <use xlink:href="#DejaVuSans-73" transform="translate(275.488281 0)"/>
    </g>
   </g>
   <g id="patch_14">
    <path d="M 783.945455 221.645166 
Q 783.945455 231.20387 783.945455 240.762574 
" style="fill: none; stroke: #bbbbbb; stroke-width: 0.5; stroke-linecap: round"/>
   </g>
   <g id="text_29">
    <!-- Darcy rescues -->
    <g style="fill: #555555" transform="translate(759.180767 208.352877) scale(0.07 -0.07)">
     <defs>
      <path id="DejaVuSans-44" d="M 1259 4147 
L 1259 519 
L 2022 519 
Q 2988 519 3436 956 
Q 3884 1394 3884 2338 
Q 3884 3275 3436 3711 
Q 2988 4147 2022 4147 
L 1259 4147 
z
M 628 4666 
L 1925 4666 
Q 3281 4666 3915 4102 
Q 4550 3538 4550 2338 
Q 4550 1131 3912 565 
Q 3275 0 1925 0 
L 628 0 
L 628 4666 
z
" transform="scale(0.015625)"/>
     </defs>
     <use xlink:href="#DejaVuSans-44"/>
     <use xlink:href="#DejaVuSans-61" transform="translate(77.001953 0)"/>
     <use xlink:href="#DejaVuSans-72" transform="translate(138.28125 0)"/>
     <use xlink:href="#DejaVuSans-63" transform="translate(177.144531 0)"/>
     <use xlink:href="#DejaVuSans-79" transform="translate(232.125 0)"/>
     <use xlink:href="#DejaVuSans-20" transform="translate(291.304688 0)"/>
     <use xlink:href="#DejaVuSans-72" transform="translate(323.091797 0)"/>
     <use xlink:href="#DejaVuSans-65" transform="translate(361.955078 0)"/>
     <use xlink:href="#DejaVuSans-73" transform="translate(423.478516 0)"/>
     <use xlink:href="#DejaVuSans-63" transform="translate(475.578125 0)"/>
     <use xlink:href="#DejaVuSans-75" transform="translate(530.558594 0)"/>
     <use xlink:href="#DejaVuSans-65" transform="translate(593.9375 0)"/>
     <use xlink:href="#DejaVuSans-73" transform="translate(655.460938 0)"/>
    </g>
    <!-- Bennets -->
    <g style="fill: #555555" transform="translate(769.605298 216.191346) scale(0.07 -0.07)">
     <use xlink:href="#DejaVuSans-42"/>
     <use xlink:href="#DejaVuSans-65" transform="translate(68.603516 0)"/>
     <use xlink:href="#DejaVuSans-6e" transform="translate(130.126953 0)"/>
     <use xlink:href="#DejaVuSans-6e" transform="translate(193.505859 0)"/>
     <use xlink:href="#DejaVuSans-65" transform="translate(256.884766 0)"/>
     <use xlink:href="#DejaVuSans-74" transform="translate(318.408203 0)"/>
     <use xlink:href="#DejaVuSans-73" transform="translate(357.617188 0)"/>
    </g>
   </g>
   <g id="patch_15">
    <path d="M 954.549091 215.366911 
Q 954.549091 224.925615 954.549091 234.484319 
" style="fill: none; stroke: #bbbbbb; stroke-width: 0.5; stroke-linecap: round"/>
   </g>
   <g id="text_30">
    <!-- Second proposal -->
    <g style="fill: #555555" transform="translate(925.527528 202.074623) scale(0.07 -0.07)">
     <use xlink:href="#DejaVuSans-53"/>
     <use xlink:href="#DejaVuSans-65" transform="translate(63.476562 0)"/>
     <use xlink:href="#DejaVuSans-63" transform="translate(125 0)"/>
     <use xlink:href="#DejaVuSans-6f" transform="translate(179.980469 0)"/>
     <use xlink:href="#DejaVuSans-6e" transform="translate(241.162109 0)"/>
     <use xlink:href="#DejaVuSans-64" transform="translate(304.541016 0)"/>
     <use xlink:href="#DejaVuSans-20" transform="translate(368.017578 0)"/>
     <use xlink:href="#DejaVuSans-70" transform="translate(399.804688 0)"/>
     <use xlink:href="#DejaVuSans-72" transform="translate(463.28125 0)"/>
     <use xlink:href="#DejaVuSans-6f" transform="translate(502.144531 0)"/>
     <use xlink:href="#DejaVuSans-70" transform="translate(563.326172 0)"/>
     <use xlink:href="#DejaVuSans-6f" transform="translate(626.802734 0)"/>
     <use xlink:href="#DejaVuSans-73" transform="translate(687.984375 0)"/>
     <use xlink:href="#DejaVuSans-61" transform="translate(740.083984 0)"/>
     <use xlink:href="#DejaVuSans-6c" transform="translate(801.363281 0)"/>
    </g>
    <!-- (accepted) -->
    <g style="fill: #555555" transform="translate(935.701044 209.913091) scale(0.07 -0.07)">
     <use xlink:href="#DejaVuSans-28"/>
     <use xlink:href="#DejaVuSans-61" transform="translate(39.013672 0)"/>
     <use xlink:href="#DejaVuSans-63" transform="translate(100.292969 0)"/>
     <use xlink:href="#DejaVuSans-63" transform="translate(155.273438 0)"/>
     <use xlink:href="#DejaVuSans-65" transform="translate(210.253906 0)"/>
     <use xlink:href="#DejaVuSans-70" transform="translate(271.777344 0)"/>
     <use xlink:href="#DejaVuSans-74" transform="translate(335.253906 0)"/>
     <use xlink:href="#DejaVuSans-65" transform="translate(374.462891 0)"/>
     <use xlink:href="#DejaVuSans-64" transform="translate(435.986328 0)"/>
     <use xlink:href="#DejaVuSans-29" transform="translate(499.462891 0)"/>
    </g>
   </g>
   <g id="text_31">
    <!-- Elizabeth Bennet → Mr. Darcy: Relationship Arc -->
    <g transform="translate(356.205391 21.197281) scale(0.13 -0.13)">
     <defs>
      <path id="DejaVuSans-Bold-45" d="M 588 4666 
L 3834 4666 
L 3834 3756 
L 1791 3756 
L 1791 2888 
L 3713 2888 
L 3713 1978 
L 1791 1978 
L 1791 909 
L 3903 909 
L 3903 0 
L 588 0 
L 588 4666 
z
" transform="scale(0.015625)"/>
      <path id="DejaVuSans-Bold-6c" d="M 538 4863 
L 1656 4863 
L 1656 0 
L 538 0 
L 538 4863 
z
" transform="scale(0.015625)"/>
      <path id="DejaVuSans-Bold-69" d="M 538 3500 
L 1656 3500 
L 1656 0 
L 538 0 
L 538 3500 
z
M 538 4863 
L 1656 4863 
L 1656 3950 
L 538 3950 
L 538 4863 
z
" transform="scale(0.015625)"/>
      <path id="DejaVuSans-Bold-7a" d="M 366 3500 
L 3419 3500 
L 3419 2719 
L 1575 800 
L 3419 800 
L 3419 0 
L 288 0 
L 288 781 
L 2131 2700 
L 366 2700 
L 366 3500 
z
" transform="scale(0.015625)"/>
      <path id="DejaVuSans-Bold-61" d="M 2106 1575 
Q 1756 1575 1579 1456 
Q 1403 1338 1403 1106 
Q 1403 894 1545 773 
Q 1688 653 1941 653 
Q 2256 653 2472 879 
Q 2688 1106 2688 1447 
L 2688 1575 
L 2106 1575 
z
M 3816 1997 
L 3816 0 
L 2688 0 
L 2688 519 
Q 2463 200 2181 54 
Q 1900 -91 1497 -91 
Q 953 -91 614 226 
Q 275 544 275 1050 
Q 275 1666 698 1953 
Q 1122 2241 2028 2241 
L 2688 2241 
L 2688 2328 
Q 2688 2594 2478 2717 
Q 2269 2841 1825 2841 
Q 1466 2841 1156 2769 
Q 847 2697 581 2553 
L 581 3406 
Q 941 3494 1303 3539 
Q 1666 3584 2028 3584 
Q 2975 3584 3395 3211 
Q 3816 2838 3816 1997 
z
" transform="scale(0.015625)"/>
      <path id="DejaVuSans-Bold-62" d="M 2400 722 
Q 2759 722 2948 984 
Q 3138 1247 3138 1747 
Q 3138 2247 2948 2509 
Q 2759 2772 2400 2772 
Q 2041 2772 1848 2508 
Q 1656 2244 1656 1747 
Q 1656 1250 1848 986 
Q 2041 722 2400 722 
z
M 1656 2988 
Q 1888 3294 2169 3439 
Q 2450 3584 2816 3584 
Q 3463 3584 3878 3070 
Q 4294 2556 4294 1747 
Q 4294 938 3878 423 
Q 3463 -91 2816 -91 
Q 2450 -91 2169 54 
Q 1888 200 1656 506 
L 1656 0 
L 538 0 
L 538 4863 
L 1656 4863 
L 1656 2988 
z
" transform="scale(0.015625)"/>
      <path id="DejaVuSans-Bold-65" d="M 4031 1759 
L 4031 1441 
L 1416 1441 
Q 1456 1047 1700 850 
Q 1944 653 2381 653 
Q 2734 653 3104 758 
Q 3475 863 3866 1075 
L 3866 213 
Q 3469 63 3072 -14 
Q 2675 -91 2278 -91 
Q 1328 -91 801 392 
Q 275 875 275 1747 
Q 275 2603 792 3093 
Q 1309 3584 2216 3584 
Q 3041 3584 3536 3087 
Q 4031 2591 4031 1759 
z
M 2881 2131 
Q 2881 2450 2695 2645 
Q 2509 2841 2209 2841 
Q 1884 2841 1681 2658 
Q 1478 2475 1428 2131 
L 2881 2131 
z
" transform="scale(0.015625)"/>
      <path id="DejaVuSans-Bold-74" d="M 1759 4494 
L 1759 3500 
L 2913 3500 
L 2913 2700 
L 1759 2700 
L 1759 1216 
Q 1759 972 1856 886 
Q 1953 800 2241 800 
L 2816 800 
L 2816 0 
L 1856 0 
Q 1194 0 917 276 
Q 641 553 641 1216 
L 641 2700 
L 84 2700 
L 84 3500 
L 641 3500 
L 641 4494 
L 1759 4494 
z
" transform="scale(0.015625)"/>
      <path id="DejaVuSans-Bold-68" d="M 4056 2131 
L 4056 0 
L 2931 0 
L 2931 347 
L 2931 1625 
Q 2931 2084 2911 2256 
Q 2891 2428 2841 2509 
Q 2775 2619 2662 2680 
Q 2550 2741 2406 2741 
Q 2056 2741 1856 2470 
Q 1656 2200 1656 1722 
L 1656 0 
L 538 0 
L 538 4863 
L 1656 4863 
L 1656 2988 
Q 1909 3294 2193 3439 
Q 2478 3584 2822 3584 
Q 3428 3584 3742 3212 
Q 4056 2841 4056 2131 
z
" transform="scale(0.015625)"/>
      <path id="DejaVuSans-Bold-20" transform="scale(0.015625)"/>
      <path id="DejaVuSans-Bold-42" d="M 2456 2859 
Q 2741 2859 2887 2984 
Q 3034 3109 3034 3353 
Q 3034 3594 2887 3720 
Q 2741 3847 2456 3847 
L 1791 3847 
L 1791 2859 
L 2456 2859 
z
M 2497 819 
Q 2859 819 3042 972 
Q 3225 1125 3225 1434 
Q 3225 1738 3044 1889 
Q 2863 2041 2497 2041 
L 1791 2041 
L 1791 819 
L 2497 819 
z
M 3616 2497 
Q 4003 2384 4215 2081 
Q 4428 1778 4428 1338 
Q 4428 663 3972 331 
Q 3516 0 2584 0 
L 588 0 
L 588 4666 
L 2394 4666 
Q 3366 4666 3802 4372 
Q 4238 4078 4238 3431 
Q 4238 3091 4078 2852 
Q 3919 2613 3616 2497 
z
" transform="scale(0.015625)"/>
      <path id="DejaVuSans-Bold-6e" d="M 4056 2131 
L 4056 0 
L 2931 0 
L 2931 347 
L 2931 1631 
Q 2931 2084 2911 2256 
Q 2891 2428 2841 2509 
Q 2775 2619 2662 2680 
Q 2550 2741 2406 2741 
Q 2056 2741 1856 2470 
Q 1656 2200 1656 1722 
L 1656 0 
L 538 0 
L 538 3500 
L 1656 3500 
L 1656 2988 
Q 1909 3294 2193 3439 
Q 2478 3584 2822 3584 
Q 3428 3584 3742 3212 
Q 4056 2841 4056 2131 
z
" transform="scale(0.015625)"/>
      <path id="DejaVuSans-Bold-2192" d="M 5050 2225 
L 5050 1788 
L 3822 559 
L 3369 1013 
L 3988 1631 
L 366 1631 
L 366 2381 
L 3988 2381 
L 3369 3000 
L 3822 3453 
L 5050 2225 
z
" transform="scale(0.015625)"/>
      <path id="DejaVuSans-Bold-4d" d="M 588 4666 
L 2119 4666 
L 3181 2169 
L 4250 4666 
L 5778 4666 
L 5778 0 
L 4641 0 
L 4641 3413 
L 3566 897 
L 2803 897 
L 1728 3413 
L 1728 0 
L 588 0 
L 588 4666 
z
" transform="scale(0.015625)"/>
      <path id="DejaVuSans-Bold-72" d="M 3138 2547 
Q 2991 2616 2845 2648 
Q 2700 2681 2553 2681 
Q 2122 2681 1889 2404 
Q 1656 2128 1656 1613 
L 1656 0 
L 538 0 
L 538 3500 
L 1656 3500 
L 1656 2925 
Q 1872 3269 2151 3426 
Q 2431 3584 2822 3584 
Q 2878 3584 2943 3579 
Q 3009 3575 3134 3559 
L 3138 2547 
z
" transform="scale(0.015625)"/>
      <path id="DejaVuSans-Bold-2e" d="M 653 1209 
L 1778 1209 
L 1778 0 
L 653 0 
L 653 1209 
z
" transform="scale(0.015625)"/>
      <path id="DejaVuSans-Bold-44" d="M 1791 3756 
L 1791 909 
L 2222 909 
Q 2959 909 3348 1275 
Q 3738 1641 3738 2338 
Q 3738 3031 3350 3393 
Q 2963 3756 2222 3756 
L 1791 3756 
z
M 588 4666 
L 1856 4666 
Q 2919 4666 3439 4514 
Q 3959 4363 4331 4000 
Q 4659 3684 4818 3271 
Q 4978 2859 4978 2338 
Q 4978 1809 4818 1395 
Q 4659 981 4331 666 
Q 3956 303 3431 151 
Q 2906 0 1856 0 
L 588 0 
L 588 4666 
z
" transform="scale(0.015625)"/>
      <path id="DejaVuSans-Bold-63" d="M 3366 3391 
L 3366 2478 
Q 3138 2634 2908 2709 
Q 2678 2784 2431 2784 
Q 1963 2784 1702 2511 
Q 1441 2238 1441 1747 
Q 1441 1256 1702 982 
Q 1963 709 2431 709 
Q 2694 709 2930 787 
Q 3166 866 3366 1019 
L 3366 103 
Q 3103 6 2833 -42 
Q 2563 -91 2291 -91 
Q 1344 -91 809 395 
Q 275 881 275 1747 
Q 275 2613 809 3098 
Q 1344 3584 2291 3584 
Q 2566 3584 2833 3536 
Q 3100 3488 3366 3391 
z
" transform="scale(0.015625)"/>
      <path id="DejaVuSans-Bold-79" d="M 78 3500 
L 1197 3500 
L 2138 1125 
L 2938 3500 
L 4056 3500 
L 2584 -331 
Q 2363 -916 2067 -1148 
Q 1772 -1381 1288 -1381 
L 641 -1381 
L 641 -647 
L 991 -647 
Q 1275 -647 1404 -556 
Q 1534 -466 1606 -231 
L 1638 -134 
L 78 3500 
z
" transform="scale(0.015625)"/>
      <path id="DejaVuSans-Bold-3a" d="M 716 3500 
L 1844 3500 
L 1844 2291 
L 716 2291 
L 716 3500 
z
M 716 1209 
L 1844 1209 
L 1844 0 
L 716 0 
L 716 1209 
z
" transform="scale(0.015625)"/>
      <path id="DejaVuSans-Bold-52" d="M 2297 2597 
Q 2675 2597 2839 2737 
Q 3003 2878 3003 3200 
Q 3003 3519 2839 3656 
Q 2675 3794 2297 3794 
L 1791 3794 
L 1791 2597 
L 2297 2597 
z
M 1791 1766 
L 1791 0 
L 588 0 
L 588 4666 
L 2425 4666 
Q 3347 4666 3776 4356 
Q 4206 4047 4206 3378 
Q 4206 2916 3982 2619 
Q 3759 2322 3309 2181 
Q 3556 2125 3751 1926 
Q 3947 1728 4147 1325 
L 4800 0 
L 3519 0 
L 2950 1159 
Q 2778 1509 2601 1637 
Q 2425 1766 2131 1766 
L 1791 1766 
z
" transform="scale(0.015625)"/>
      <path id="DejaVuSans-Bold-6f" d="M 2203 2784 
Q 1831 2784 1636 2517 
Q 1441 2250 1441 1747 
Q 1441 1244 1636 976 
Q 1831 709 2203 709 
Q 2569 709 2762 976 
Q 2956 1244 2956 1747 
Q 2956 2250 2762 2517 
Q 2569 2784 2203 2784 
z
M 2203 3584 
Q 3106 3584 3614 3096 
Q 4122 2609 4122 1747 
Q 4122 884 3614 396 
Q 3106 -91 2203 -91 
Q 1297 -91 786 396 
Q 275 884 275 1747 
Q 275 2609 786 3096 
Q 1297 3584 2203 3584 
z
" transform="scale(0.015625)"/>
      <path id="DejaVuSans-Bold-73" d="M 3272 3391 
L 3272 2541 
Q 2913 2691 2578 2766 
Q 2244 2841 1947 2841 
Q 1628 2841 1473 2761 
Q 1319 2681 1319 2516 
Q 1319 2381 1436 2309 
Q 1553 2238 1856 2203 
L 2053 2175 
Q 2913 2066 3209 1816 
Q 3506 1566 3506 1031 
Q 3506 472 3093 190 
Q 2681 -91 1863 -91 
Q 1516 -91 1145 -36 
Q 775 19 384 128 
L 384 978 
Q 719 816 1070 734 
Q 1422 653 1784 653 
Q 2113 653 2278 743 
Q 2444 834 2444 1013 
Q 2444 1163 2330 1236 
Q 2216 1309 1875 1350 
L 1678 1375 
Q 931 1469 631 1722 
Q 331 1975 331 2491 
Q 331 3047 712 3315 
Q 1094 3584 1881 3584 
Q 2191 3584 2531 3537 
Q 2872 3491 3272 3391 
z
" transform="scale(0.015625)"/>
      <path id="DejaVuSans-Bold-70" d="M 1656 506 
L 1656 -1331 
L 538 -1331 
L 538 3500 
L 1656 3500 
L 1656 2988 
Q 1888 3294 2169 3439 
Q 2450 3584 2816 3584 
Q 3463 3584 3878 3070 
Q 4294 2556 4294 1747 
Q 4294 938 3878 423 
Q 3463 -91 2816 -91 
Q 2450 -91 2169 54 
Q 1888 200 1656 506 
z
M 2400 2772 
Q 2041 2772 1848 2508 
Q 1656 2244 1656 1747 
Q 1656 1250 1848 986 
Q 2041 722 2400 722 
Q 2759 722 2948 984 
Q 3138 1247 3138 1747 
Q 3138 2247 2948 2509 
Q 2759 2772 2400 2772 
z
" transform="scale(0.015625)"/>
      <path id="DejaVuSans-Bold-41" d="M 3419 850 
L 1538 850 
L 1241 0 
L 31 0 
L 1759 4666 
L 3194 4666 
L 4922 0 
L 3713 0 
L 3419 850 
z
M 1838 1716 
L 3116 1716 
L 2478 3572 
L 1838 1716 
z
" transform="scale(0.015625)"/>
     </defs>
     <use xlink:href="#DejaVuSans-Bold-45"/>
     <use xlink:href="#DejaVuSans-Bold-6c" transform="translate(68.310547 0)"/>
     <use xlink:href="#DejaVuSans-Bold-69" transform="translate(102.587891 0)"/>
     <use xlink:href="#DejaVuSans-Bold-7a" transform="translate(136.865234 0)"/>
     <use xlink:href="#DejaVuSans-Bold-61" transform="translate(195.068359 0)"/>
     <use xlink:href="#DejaVuSans-Bold-62" transform="translate(262.548828 0)"/>
     <use xlink:href="#DejaVuSans-Bold-65" transform="translate(334.130859 0)"/>
     <use xlink:href="#DejaVuSans-Bold-74" transform="translate(401.953125 0)"/>
     <use xlink:href="#DejaVuSans-Bold-68" transform="translate(449.755859 0)"/>
     <use xlink:href="#DejaVuSans-Bold-20" transform="translate(520.947266 0)"/>
     <use xlink:href="#DejaVuSans-Bold-42" transform="translate(555.761719 0)"/>
     <use xlink:href="#DejaVuSans-Bold-65" transform="translate(631.982422 0)"/>
     <use xlink:href="#DejaVuSans-Bold-6e" transform="translate(699.804688 0)"/>
     <use xlink:href="#DejaVuSans-Bold-6e" transform="translate(770.996094 0)"/>
     <use xlink:href="#DejaVuSans-Bold-65" transform="translate(842.1875 0)"/>
     <use xlink:href="#DejaVuSans-Bold-74" transform="translate(910.009766 0)"/>
     <use xlink:href="#DejaVuSans-Bold-20" transform="translate(957.8125 0)"/>
     <use xlink:href="#DejaVuSans-Bold-2192" transform="translate(992.626953 0)"/>
     <use xlink:href="#DejaVuSans-Bold-20" transform="translate(1076.416016 0)"/>
     <use xlink:href="#DejaVuSans-Bold-4d" transform="translate(1111.230469 0)"/>
     <use xlink:href="#DejaVuSans-Bold-72" transform="translate(1210.742188 0)"/>
     <use xlink:href="#DejaVuSans-Bold-2e" transform="translate(1245.808594 0)"/>
     <use xlink:href="#DejaVuSans-Bold-20" transform="translate(1283.796875 0)"/>
     <use xlink:href="#DejaVuSans-Bold-44" transform="translate(1318.611328 0)"/>
     <use xlink:href="#DejaVuSans-Bold-61" transform="translate(1401.619141 0)"/>
     <use xlink:href="#DejaVuSans-Bold-72" transform="translate(1469.099609 0)"/>
     <use xlink:href="#DejaVuSans-Bold-63" transform="translate(1518.416016 0)"/>
     <use xlink:href="#DejaVuSans-Bold-79" transform="translate(1577.693359 0)"/>
     <use xlink:href="#DejaVuSans-Bold-3a" transform="translate(1642.878906 0)"/>
     <use xlink:href="#DejaVuSans-Bold-20" transform="translate(1682.869141 0)"/>
     <use xlink:href="#DejaVuSans-Bold-52" transform="translate(1717.683594 0)"/>
     <use xlink:href="#DejaVuSans-Bold-65" transform="translate(1794.685547 0)"/>
     <use xlink:href="#DejaVuSans-Bold-6c" transform="translate(1862.507812 0)"/>
     <use xlink:href="#DejaVuSans-Bold-61" transform="translate(1896.785156 0)"/>
     <use xlink:href="#DejaVuSans-Bold-74" transform="translate(1964.265625 0)"/>
     <use xlink:href="#DejaVuSans-Bold-69" transform="translate(2012.068359 0)"/>
     <use xlink:href="#DejaVuSans-Bold-6f" transform="translate(2046.345703 0)"/>
     <use xlink:href="#DejaVuSans-Bold-6e" transform="translate(2115.046875 0)"/>
     <use xlink:href="#DejaVuSans-Bold-73" transform="translate(2186.238281 0)"/>
     <use xlink:href="#DejaVuSans-Bold-68" transform="translate(2245.759766 0)"/>
     <use xlink:href="#DejaVuSans-Bold-69" transform="translate(2316.951172 0)"/>
     <use xlink:href="#DejaVuSans-Bold-70" transform="translate(2351.228516 0)"/>
     <use xlink:href="#DejaVuSans-Bold-20" transform="translate(2422.810547 0)"/>
     <use xlink:href="#DejaVuSans-Bold-41" transform="translate(2457.625 0)"/>
     <use xlink:href="#DejaVuSans-Bold-72" transform="translate(2535.017578 0)"/>
     <use xlink:href="#DejaVuSans-Bold-63" transform="translate(2584.333984 0)"/>
    </g>
    <!-- Pride and Prejudice — tracked by Woven Imprint -->
    <g transform="translate(350.058828 35.856) scale(0.13 -0.13)">
     <defs>
      <path id="DejaVuSans-Bold-50" d="M 588 4666 
L 2584 4666 
Q 3475 4666 3951 4270 
Q 4428 3875 4428 3144 
Q 4428 2409 3951 2014 
Q 3475 1619 2584 1619 
L 1791 1619 
L 1791 0 
L 588 0 
L 588 4666 
z
M 1791 3794 
L 1791 2491 
L 2456 2491 
Q 2806 2491 2997 2661 
Q 3188 2831 3188 3144 
Q 3188 3456 2997 3625 
Q 2806 3794 2456 3794 
L 1791 3794 
z
" transform="scale(0.015625)"/>
      <path id="DejaVuSans-Bold-64" d="M 2919 2988 
L 2919 4863 
L 4044 4863 
L 4044 0 
L 2919 0 
L 2919 506 
Q 2688 197 2409 53 
Q 2131 -91 1766 -91 
Q 1119 -91 703 423 
Q 288 938 288 1747 
Q 288 2556 703 3070 
Q 1119 3584 1766 3584 
Q 2128 3584 2408 3439 
Q 2688 3294 2919 2988 
z
M 2181 722 
Q 2541 722 2730 984 
Q 2919 1247 2919 1747 
Q 2919 2247 2730 2509 
Q 2541 2772 2181 2772 
Q 1825 2772 1636 2509 
Q 1447 2247 1447 1747 
Q 1447 1247 1636 984 
Q 1825 722 2181 722 
z
" transform="scale(0.015625)"/>
      <path id="DejaVuSans-Bold-6a" d="M 538 3500 
L 1656 3500 
L 1656 63 
Q 1656 -641 1318 -1011 
Q 981 -1381 341 -1381 
L -213 -1381 
L -213 -647 
L -19 -647 
Q 300 -647 419 -503 
Q 538 -359 538 63 
L 538 3500 
z
M 538 4863 
L 1656 4863 
L 1656 3950 
L 538 3950 
L 538 4863 
z
" transform="scale(0.015625)"/>
      <path id="DejaVuSans-Bold-75" d="M 500 1363 
L 500 3500 
L 1625 3500 
L 1625 3150 
Q 1625 2866 1622 2436 
Q 1619 2006 1619 1863 
Q 1619 1441 1641 1255 
Q 1663 1069 1716 984 
Q 1784 875 1895 815 
Q 2006 756 2150 756 
Q 2500 756 2700 1025 
Q 2900 1294 2900 1772 
L 2900 3500 
L 4019 3500 
L 4019 0 
L 2900 0 
L 2900 506 
Q 2647 200 2364 54 
Q 2081 -91 1741 -91 
Q 1134 -91 817 281 
Q 500 653 500 1363 
z
" transform="scale(0.015625)"/>
      <path id="DejaVuSans-Bold-2014" d="M 344 2156 
L 6056 2156 
L 6056 1350 
L 344 1350 
L 344 2156 
z
" transform="scale(0.015625)"/>
      <path id="DejaVuSans-Bold-6b" d="M 538 4863 
L 1656 4863 
L 1656 2216 
L 2944 3500 
L 4244 3500 
L 2534 1894 
L 4378 0 
L 3022 0 
L 1656 1459 
L 1656 0 
L 538 0 
L 538 4863 
z
" transform="scale(0.015625)"/>
      <path id="DejaVuSans-Bold-57" d="M 191 4666 
L 1344 4666 
L 2150 1275 
L 2950 4666 
L 4109 4666 
L 4909 1275 
L 5716 4666 
L 6859 4666 
L 5759 0 
L 4372 0 
L 3525 3547 
L 2688 0 
L 1300 0 
L 191 4666 
z
" transform="scale(0.015625)"/>
      <path id="DejaVuSans-Bold-76" d="M 97 3500 
L 1216 3500 
L 2088 1081 
L 2956 3500 
L 4078 3500 
L 2700 0 
L 1472 0 
L 97 3500 
z
" transform="scale(0.015625)"/>
      <path id="DejaVuSans-Bold-49" d="M 588 4666 
L 1791 4666 
L 1791 0 
L 588 0 
L 588 4666 
z
" transform="scale(0.015625)"/>
      <path id="DejaVuSans-Bold-6d" d="M 3781 2919 
Q 3994 3244 4286 3414 
Q 4578 3584 4928 3584 
Q 5531 3584 5847 3212 
Q 6163 2841 6163 2131 
L 6163 0 
L 5038 0 
L 5038 1825 
Q 5041 1866 5042 1909 
Q 5044 1953 5044 2034 
Q 5044 2406 4934 2573 
Q 4825 2741 4581 2741 
Q 4263 2741 4089 2478 
Q 3916 2216 3909 1719 
L 3909 0 
L 2784 0 
L 2784 1825 
Q 2784 2406 2684 2573 
Q 2584 2741 2328 2741 
Q 2006 2741 1831 2477 
Q 1656 2213 1656 1722 
L 1656 0 
L 531 0 
L 531 3500 
L 1656 3500 
L 1656 2988 
Q 1863 3284 2130 3434 
Q 2397 3584 2719 3584 
Q 3081 3584 3359 3409 
Q 3638 3234 3781 2919 
z
" transform="scale(0.015625)"/>
     </defs>
     <use xlink:href="#DejaVuSans-Bold-50"/>
     <use xlink:href="#DejaVuSans-Bold-72" transform="translate(73.291016 0)"/>
     <use xlink:href="#DejaVuSans-Bold-69" transform="translate(122.607422 0)"/>
     <use xlink:href="#DejaVuSans-Bold-64" transform="translate(156.884766 0)"/>
     <use xlink:href="#DejaVuSans-Bold-65" transform="translate(228.466797 0)"/>
     <use xlink:href="#DejaVuSans-Bold-20" transform="translate(296.289062 0)"/>
     <use xlink:href="#DejaVuSans-Bold-61" transform="translate(331.103516 0)"/>
     <use xlink:href="#DejaVuSans-Bold-6e" transform="translate(398.583984 0)"/>
     <use xlink:href="#DejaVuSans-Bold-64" transform="translate(469.775391 0)"/>
     <use xlink:href="#DejaVuSans-Bold-20" transform="translate(541.357422 0)"/>
     <use xlink:href="#DejaVuSans-Bold-50" transform="translate(576.171875 0)"/>
     <use xlink:href="#DejaVuSans-Bold-72" transform="translate(649.462891 0)"/>
     <use xlink:href="#DejaVuSans-Bold-65" transform="translate(698.779297 0)"/>
     <use xlink:href="#DejaVuSans-Bold-6a" transform="translate(766.601562 0)"/>
     <use xlink:href="#DejaVuSans-Bold-75" transform="translate(800.878906 0)"/>
     <use xlink:href="#DejaVuSans-Bold-64" transform="translate(872.070312 0)"/>
     <use xlink:href="#DejaVuSans-Bold-69" transform="translate(943.652344 0)"/>
     <use xlink:href="#DejaVuSans-Bold-63" transform="translate(977.929688 0)"/>
     <use xlink:href="#DejaVuSans-Bold-65" transform="translate(1037.207031 0)"/>
     <use xlink:href="#DejaVuSans-Bold-20" transform="translate(1105.029297 0)"/>
     <use xlink:href="#DejaVuSans-Bold-2014" transform="translate(1139.84375 0)"/>
     <use xlink:href="#DejaVuSans-Bold-20" transform="translate(1239.84375 0)"/>
     <use xlink:href="#DejaVuSans-Bold-74" transform="translate(1274.658203 0)"/>
     <use xlink:href="#DejaVuSans-Bold-72" transform="translate(1322.460938 0)"/>
     <use xlink:href="#DejaVuSans-Bold-61" transform="translate(1371.777344 0)"/>
     <use xlink:href="#DejaVuSans-Bold-63" transform="translate(1439.257812 0)"/>
     <use xlink:href="#DejaVuSans-Bold-6b" transform="translate(1498.535156 0)"/>
     <use xlink:href="#DejaVuSans-Bold-65" transform="translate(1562.414062 0)"/>
     <use xlink:href="#DejaVuSans-Bold-64" transform="translate(1630.236328 0)"/>
     <use xlink:href="#DejaVuSans-Bold-20" transform="translate(1701.818359 0)"/>
     <use xlink:href="#DejaVuSans-Bold-62" transform="translate(1736.632812 0)"/>
     <use xlink:href="#DejaVuSans-Bold-79" transform="translate(1808.214844 0)"/>
     <use xlink:href="#DejaVuSans-Bold-20" transform="translate(1873.400391 0)"/>
     <use xlink:href="#DejaVuSans-Bold-57" transform="translate(1908.214844 0)"/>
     <use xlink:href="#DejaVuSans-Bold-6f" transform="translate(2014.892578 0)"/>
     <use xlink:href="#DejaVuSans-Bold-76" transform="translate(2083.59375 0)"/>
     <use xlink:href="#DejaVuSans-Bold-65" transform="translate(2148.779297 0)"/>
     <use xlink:href="#DejaVuSans-Bold-6e" transform="translate(2216.601562 0)"/>
     <use xlink:href="#DejaVuSans-Bold-20" transform="translate(2287.792969 0)"/>
     <use xlink:href="#DejaVuSans-Bold-49" transform="translate(2322.607422 0)"/>
     <use xlink:href="#DejaVuSans-Bold-6d" transform="translate(2359.814453 0)"/>
     <use xlink:href="#DejaVuSans-Bold-70" transform="translate(2464.013672 0)"/>
     <use xlink:href="#DejaVuSans-Bold-72" transform="translate(2535.595703 0)"/>
     <use xlink:href="#DejaVuSans-Bold-69" transform="translate(2584.912109 0)"/>
     <use xlink:href="#DejaVuSans-Bold-6e" transform="translate(2619.189453 0)"/>
     <use xlink:href="#DejaVuSans-Bold-74" transform="translate(2690.380859 0)"/>
    </g>
   </g>
   <g id="legend_1">
    <g id="patch_16">
     <path d="M 65.88 108.5685 
L 142.205 108.5685 
Q 144.205 108.5685 144.205 106.5685 
L 144.205 48.856 
Q 144.205 46.856 142.205 46.856 
L 65.88 46.856 
Q 63.88 46.856 63.88 48.856 
L 63.88 106.5685 
Q 63.88 108.5685 65.88 108.5685 
z
" style="fill: #ffffff; opacity: 0.9; stroke: #cccccc; stroke-linejoin: miter"/>
    </g>
    <g id="line2d_44">
     <path d="M 67.88 54.954437 
L 77.88 54.954437 
L 87.88 54.954437 
" style="fill: none; stroke: #2563eb; stroke-width: 2.5; stroke-linecap: square"/>
     <g>
      <use xlink:href="#ma11e572996" x="77.88" y="54.954437" style="fill: #2563eb; stroke: #2563eb"/>
     </g>
    </g>
    <g id="text_32">
     <!-- Trust -->
     <g transform="translate(95.88 58.454437) scale(0.1 -0.1)">
      <use xlink:href="#DejaVuSans-54"/>
      <use xlink:href="#DejaVuSans-72" transform="translate(46.333984 0)"/>
      <use xlink:href="#DejaVuSans-75" transform="translate(87.447266 0)"/>
      <use xlink:href="#DejaVuSans-73" transform="translate(150.826172 0)"/>
      <use xlink:href="#DejaVuSans-74" transform="translate(202.925781 0)"/>
     </g>
    </g>
    <g id="line2d_45">
     <path d="M 67.88 69.632562 
L 77.88 69.632562 
L 87.88 69.632562 
" style="fill: none; stroke: #dc2626; stroke-width: 2.5; stroke-linecap: square"/>
     <g>
      <use xlink:href="#m177fb690e7" x="77.88" y="69.632562" style="fill: #dc2626; stroke: #dc2626; stroke-linejoin: miter"/>
     </g>
    </g>
    <g id="text_33">
     <!-- Affection -->
     <g transform="translate(95.88 73.132562) scale(0.1 -0.1)">
      <use xlink:href="#DejaVuSans-41"/>
      <use xlink:href="#DejaVuSans-66" transform="translate(64.783203 0)"/>
      <use xlink:href="#DejaVuSans-66" transform="translate(99.988281 0)"/>
      <use xlink:href="#DejaVuSans-65" transform="translate(135.193359 0)"/>
      <use xlink:href="#DejaVuSans-63" transform="translate(196.716797 0)"/>
      <use xlink:href="#DejaVuSans-74" transform="translate(251.697266 0)"/>
      <use xlink:href="#DejaVuSans-69" transform="translate(290.90625 0)"/>
      <use xlink:href="#DejaVuSans-6f" transform="translate(318.689453 0)"/>
      <use xlink:href="#DejaVuSans-6e" transform="translate(379.871094 0)"/>
     </g>
    </g>
    <g id="line2d_46">
     <path d="M 67.88 84.310687 
L 77.88 84.310687 
L 87.88 84.310687 
" style="fill: none; stroke: #16a34a; stroke-opacity: 0.8; stroke-width: 2; stroke-linecap: square"/>
     <g>
      <use xlink:href="#m1057766e70" x="77.88" y="84.310687" style="fill: #16a34a; fill-opacity: 0.8; stroke: #16a34a; stroke-opacity: 0.8; stroke-linejoin: miter"/>
     </g>
    </g>
    <g id="text_34">
     <!-- Respect -->
     <g transform="translate(95.88 87.810687) scale(0.1 -0.1)">
      <defs>
       <path id="DejaVuSans-52" d="M 2841 2188 
Q 3044 2119 3236 1894 
Q 3428 1669 3622 1275 
L 4263 0 
L 3584 0 
L 2988 1197 
Q 2756 1666 2539 1819 
Q 2322 1972 1947 1972 
L 1259 1972 
L 1259 0 
L 628 0 
L 628 4666 
L 2053 4666 
Q 2853 4666 3247 4331 
Q 3641 3997 3641 3322 
Q 3641 2881 3436 2590 
Q 3231 2300 2841 2188 
z
M 1259 4147 
L 1259 2491 
L 2053 2491 
Q 2509 2491 2742 2702 
Q 2975 2913 2975 3322 
Q 2975 3731 2742 3939 
Q 2509 4147 2053 4147 
L 1259 4147 
z
" transform="scale(0.015625)"/>
      </defs>
      <use xlink:href="#DejaVuSans-52"/>
      <use xlink:href="#DejaVuSans-65" transform="translate(64.982422 0)"/>
      <use xlink:href="#DejaVuSans-73" transform="translate(126.505859 0)"/>
      <use xlink:href="#DejaVuSans-70" transform="translate(178.605469 0)"/>
      <use xlink:href="#DejaVuSans-65" transform="translate(242.082031 0)"/>
      <use xlink:href="#DejaVuSans-63" transform="translate(303.605469 0)"/>
      <use xlink:href="#DejaVuSans-74" transform="translate(358.585938 0)"/>
     </g>
    </g>
    <g id="line2d_47">
     <path d="M 67.88 98.988812 
L 77.88 98.988812 
L 87.88 98.988812 
" style="fill: none; stroke: #ea580c; stroke-opacity: 0.6; stroke-width: 1.5; stroke-linecap: square"/>
     <g>
      <use xlink:href="#me3b17cebad" x="77.88" y="98.988812" style="fill: #ea580c; fill-opacity: 0.6; stroke: #ea580c; stroke-opacity: 0.6; stroke-linejoin: miter"/>
     </g>
    </g>
    <g id="text_35">
     <!-- Tension -->
     <g transform="translate(95.88 102.488812) scale(0.1 -0.1)">
      <use xlink:href="#DejaVuSans-54"/>
      <use xlink:href="#DejaVuSans-65" transform="translate(44.083984 0)"/>
      <use xlink:href="#DejaVuSans-6e" transform="translate(105.607422 0)"/>
      <use xlink:href="#DejaVuSans-73" transform="translate(168.986328 0)"/>
      <use xlink:href="#DejaVuSans-69" transform="translate(221.085938 0)"/>
      <use xlink:href="#DejaVuSans-6f" transform="translate(248.869141 0)"/>
      <use xlink:href="#DejaVuSans-6e" transform="translate(310.050781 0)"/>
     </g>
    </g>
   </g>
  </g>
 </g>
 <defs>
  <clipPath id="p7c9b4fae1b">
   <rect x="58.88" y="41.856" width="938.32" height="345.304"/>
  </clipPath>
 </defs>
</svg>
